<?xml version="1.0" encoding="UTF-8" standalone="no"?>
<!DOCTYPE svg PUBLIC "-//W3C//DTD SVG 1.1//EN"
 "http://www.w3.org/Graphics/SVG/1.1/DTD/svg11.dtd">
<!-- Generated by graphviz version 2.38.0 (20140413.2041)
 -->
<!-- Title: timeline Pages: 1 -->
<svg width="1502pt" height="498pt"
 viewBox="0.00 0.00 1501.60 498.00" xmlns="http://www.w3.org/2000/svg" xmlns:xlink="http://www.w3.org/1999/xlink">
<g id="graph0" class="graph" transform="scale(1 1) rotate(0) translate(4 494)">
<title>timeline</title>
<polygon fill="white" stroke="none" points="-4,4 -4,-494 1497.6,-494 1497.6,4 -4,4"/>
<g id="clust1" class="cluster"><title>cluster_0</title>
<polygon fill="none" stroke="black" points="8,-178 8,-277 95,-277 95,-178 8,-178"/>
<text text-anchor="middle" x="51.5" y="-261.8" font-family="Times New Roman,serif" font-size="14.00">January</text>
</g>
<g id="clust2" class="cluster"><title>cluster_1</title>
<polygon fill="none" stroke="black" points="115,-106 115,-277 213,-277 213,-106 115,-106"/>
<text text-anchor="middle" x="164" y="-261.8" font-family="Times New Roman,serif" font-size="14.00">February</text>
</g>
<g id="clust3" class="cluster"><title>cluster_2</title>
<polygon fill="none" stroke="black" points="233,-240 233,-395 331,-395 331,-240 233,-240"/>
<text text-anchor="middle" x="282" y="-379.8" font-family="Times New Roman,serif" font-size="14.00">March</text>
</g>
<g id="clust4" class="cluster"><title>cluster_3</title>
<polygon fill="none" stroke="black" points="351,-10 351,-277 449,-277 449,-10 351,-10"/>
<text text-anchor="middle" x="400" y="-261.8" font-family="Times New Roman,serif" font-size="14.00">April</text>
</g>
<g id="clust5" class="cluster"><title>cluster_4</title>
<polygon fill="none" stroke="black" points="469,-303 469,-473 567,-473 567,-303 469,-303"/>
<text text-anchor="middle" x="518" y="-457.8" font-family="Times New Roman,serif" font-size="14.00">May</text>
</g>
<g id="clust6" class="cluster"><title>cluster_5</title>
<polygon fill="none" stroke="black" points="587,-71 587,-282 685,-282 685,-71 587,-71"/>
<text text-anchor="middle" x="636" y="-266.8" font-family="Times New Roman,serif" font-size="14.00">June</text>
</g>
<g id="clust7" class="cluster"><title>cluster_6</title>
<polygon fill="none" stroke="black" points="705,-239 705,-409 803,-409 803,-239 705,-239"/>
<text text-anchor="middle" x="754" y="-393.8" font-family="Times New Roman,serif" font-size="14.00">July</text>
</g>
<g id="clust8" class="cluster"><title>cluster_7</title>
<polygon fill="none" stroke="black" points="823,-241 823,-340 921,-340 921,-241 823,-241"/>
<text text-anchor="middle" x="872" y="-324.8" font-family="Times New Roman,serif" font-size="14.00">August</text>
</g>
<g id="clust9" class="cluster"><title>cluster_8</title>
<polygon fill="none" stroke="black" points="941,-170 941,-482 1039,-482 1039,-170 941,-170"/>
<text text-anchor="middle" x="990" y="-466.8" font-family="Times New Roman,serif" font-size="14.00">September</text>
</g>
<g id="clust10" class="cluster"><title>cluster_9</title>
<polygon fill="none" stroke="black" points="1059,-76 1059,-231 1157,-231 1157,-76 1059,-76"/>
<text text-anchor="middle" x="1108" y="-215.8" font-family="Times New Roman,serif" font-size="14.00">October</text>
</g>
<g id="clust11" class="cluster"><title>cluster_10</title>
<polygon fill="none" stroke="black" points="1177,-8 1177,-418 1275,-418 1275,-8 1177,-8"/>
<text text-anchor="middle" x="1226" y="-402.8" font-family="Times New Roman,serif" font-size="14.00">November</text>
</g>
<g id="clust12" class="cluster"><title>cluster_11</title>
<polygon fill="none" stroke="black" points="1295,-133 1295,-176 1368.6,-176 1368.6,-133 1295,-133"/>
<text text-anchor="middle" x="1331.8" y="-160.8" font-family="Times New Roman,serif" font-size="14.00">December</text>
</g>
<g id="clust13" class="cluster"><title>cluster_12</title>
<polygon fill="none" stroke="black" points="1387.6,-87 1387.6,-354 1485.6,-354 1485.6,-87 1387.6,-87"/>
<text text-anchor="middle" x="1436.6" y="-338.8" font-family="Times New Roman,serif" font-size="14.00">January</text>
</g>
<!-- order_node_0 -->
<!-- order_node_1 -->
<!-- order_node_0&#45;&gt;order_node_1 -->
<!-- node_0 -->
<g id="node2" class="node"><title>node_0</title>
<g id="a_node2"><a xlink:href="http://www.ijcai.org/" xlink:title="International Joint Conference on Artificial Intelligence" target="_blank">
<polygon fill="none" stroke="black" points="87,-224 16,-224 16,-186 87,-186 87,-224"/>
<text text-anchor="middle" x="51.5" y="-208.8" font-family="Times New Roman,serif" font-size="14.00">IJCAI</text>
<text text-anchor="middle" x="51.5" y="-193.8" font-family="Times New Roman,serif" font-size="14.00">Abstracts</text>
</a>
</g>
</g>
<!-- node_2 -->
<g id="node5" class="node"><title>node_2</title>
<g id="a_node5"><a xlink:href="http://www.ijcai.org/" xlink:title="International Joint Conference on Artificial Intelligence" target="_blank">
<polygon fill="none" stroke="black" points="205,-224 123,-224 123,-186 205,-186 205,-224"/>
<text text-anchor="middle" x="164" y="-208.8" font-family="Times New Roman,serif" font-size="14.00">IJCAI</text>
<text text-anchor="middle" x="164" y="-193.8" font-family="Times New Roman,serif" font-size="14.00">Submission</text>
</a>
</g>
</g>
<!-- node_0&#45;&gt;node_2 -->
<g id="edge1" class="edge"><title>node_0&#45;&gt;node_2</title>
<path fill="none" stroke="black" d="M87.1597,-205C95.2573,-205 104.043,-205 112.668,-205"/>
<polygon fill="black" stroke="black" points="112.669,-208.5 122.668,-205 112.668,-201.5 112.669,-208.5"/>
</g>
<!-- order_node_2 -->
<!-- order_node_1&#45;&gt;order_node_2 -->
<!-- node_1 -->
<g id="node4" class="node"><title>node_1</title>
<g id="a_node4"><a xlink:href="https://www.cs.nmsu.edu/ALP/iclp2018/" xlink:title="International Conference on Logic Programming" target="_blank">
<polygon fill="none" stroke="black" points="205,-167.5 123,-167.5 123,-114.5 205,-114.5 205,-167.5"/>
<text text-anchor="middle" x="164" y="-152.3" font-family="Times New Roman,serif" font-size="14.00">ICLP</text>
<text text-anchor="middle" x="164" y="-137.3" font-family="Times New Roman,serif" font-size="14.00">Abstracts</text>
<text text-anchor="middle" x="164" y="-122.3" font-family="Times New Roman,serif" font-size="14.00">Submission</text>
</a>
</g>
</g>
<!-- node_8 -->
<g id="node13" class="node"><title>node_8</title>
<g id="a_node13"><a xlink:href="https://www.cs.nmsu.edu/ALP/iclp2018/" xlink:title="International Conference on Logic Programming" target="_blank">
<polygon fill="none" stroke="black" points="441,-56 359,-56 359,-18 441,-18 441,-56"/>
<text text-anchor="middle" x="400" y="-40.8" font-family="Times New Roman,serif" font-size="14.00">ICLP</text>
<text text-anchor="middle" x="400" y="-25.8" font-family="Times New Roman,serif" font-size="14.00">Notification</text>
</a>
</g>
</g>
<!-- node_1&#45;&gt;node_8 -->
<g id="edge3" class="edge"><title>node_1&#45;&gt;node_8</title>
<path fill="none" stroke="black" d="M205.226,-123.122C245.194,-105.358 306.563,-78.0829 349.5,-59.0001"/>
<polygon fill="black" stroke="black" points="351.191,-62.0784 358.908,-54.8187 348.348,-55.6818 351.191,-62.0784"/>
</g>
<!-- node_5 -->
<g id="node10" class="node"><title>node_5</title>
<g id="a_node10"><a xlink:href="http://www.ijcai.org/" xlink:title="International Joint Conference on Artificial Intelligence" target="_blank">
<polygon fill="none" stroke="black" points="441,-224 359,-224 359,-186 441,-186 441,-224"/>
<text text-anchor="middle" x="400" y="-208.8" font-family="Times New Roman,serif" font-size="14.00">IJCAI</text>
<text text-anchor="middle" x="400" y="-193.8" font-family="Times New Roman,serif" font-size="14.00">Notification</text>
</a>
</g>
</g>
<!-- node_2&#45;&gt;node_5 -->
<g id="edge2" class="edge"><title>node_2&#45;&gt;node_5</title>
<path fill="none" stroke="black" d="M205.226,-205C244.942,-205 305.791,-205 348.686,-205"/>
<polygon fill="black" stroke="black" points="348.908,-208.5 358.908,-205 348.908,-201.5 348.908,-208.5"/>
</g>
<!-- order_node_3 -->
<!-- order_node_2&#45;&gt;order_node_3 -->
<!-- node_3 -->
<g id="node7" class="node"><title>node_3</title>
<g id="a_node7"><a xlink:href="http://auai.org/" xlink:title="Conference on Uncertainty in Artificial Intelligence" target="_blank">
<polygon fill="none" stroke="black" points="323,-364 241,-364 241,-326 323,-326 323,-364"/>
<text text-anchor="middle" x="282" y="-348.8" font-family="Times New Roman,serif" font-size="14.00">UAI</text>
<text text-anchor="middle" x="282" y="-333.8" font-family="Times New Roman,serif" font-size="14.00">Submission</text>
</a>
</g>
</g>
<!-- node_10 -->
<g id="node16" class="node"><title>node_10</title>
<g id="a_node16"><a xlink:href="http://auai.org/" xlink:title="Conference on Uncertainty in Artificial Intelligence" target="_blank">
<polygon fill="none" stroke="black" points="559,-442 477,-442 477,-404 559,-404 559,-442"/>
<text text-anchor="middle" x="518" y="-426.8" font-family="Times New Roman,serif" font-size="14.00">UAI</text>
<text text-anchor="middle" x="518" y="-411.8" font-family="Times New Roman,serif" font-size="14.00">Notification</text>
</a>
</g>
</g>
<!-- node_3&#45;&gt;node_10 -->
<g id="edge4" class="edge"><title>node_3&#45;&gt;node_10</title>
<path fill="none" stroke="black" d="M323.226,-358.409C363.11,-371.703 424.306,-392.102 467.229,-406.41"/>
<polygon fill="black" stroke="black" points="466.314,-409.794 476.908,-409.636 468.528,-403.153 466.314,-409.794"/>
</g>
<!-- node_4 -->
<g id="node8" class="node"><title>node_4</title>
<g id="a_node8"><a xlink:href="http://www.iros.org/" xlink:title="International Conference on Intelligent Robots and Systems" target="_blank">
<polygon fill="none" stroke="black" points="323,-308 241,-308 241,-270 323,-270 323,-308"/>
<text text-anchor="middle" x="282" y="-292.8" font-family="Times New Roman,serif" font-size="14.00">IROS</text>
<text text-anchor="middle" x="282" y="-277.8" font-family="Times New Roman,serif" font-size="14.00">Submission</text>
</a>
</g>
</g>
<!-- node_13 -->
<g id="node20" class="node"><title>node_13</title>
<g id="a_node20"><a xlink:href="http://www.iros.org/" xlink:title="International Conference on Intelligent Robots and Systems" target="_blank">
<polygon fill="none" stroke="black" points="677,-229 595,-229 595,-191 677,-191 677,-229"/>
<text text-anchor="middle" x="636" y="-213.8" font-family="Times New Roman,serif" font-size="14.00">IROS</text>
<text text-anchor="middle" x="636" y="-198.8" font-family="Times New Roman,serif" font-size="14.00">Notification</text>
</a>
</g>
</g>
<!-- node_4&#45;&gt;node_13 -->
<g id="edge5" class="edge"><title>node_4&#45;&gt;node_13</title>
<path fill="none" stroke="black" d="M323.024,-290.583C356.928,-291.092 406.639,-289.87 449,-281 497.291,-270.889 549.558,-249.979 586.353,-233.456"/>
<polygon fill="black" stroke="black" points="588.18,-236.47 595.832,-229.143 585.281,-230.099 588.18,-236.47"/>
</g>
<!-- order_node_4 -->
<!-- order_node_3&#45;&gt;order_node_4 -->
<!-- node_6 -->
<g id="node11" class="node"><title>node_6</title>
<g id="a_node11"><a xlink:href="https://www.ijcai-18.org/" xlink:title="European Conference on Artificial Intelligence" target="_blank">
<polygon fill="none" stroke="black" points="441,-112 359,-112 359,-74 441,-74 441,-112"/>
<text text-anchor="middle" x="400" y="-96.8" font-family="Times New Roman,serif" font-size="14.00">ECAI</text>
<text text-anchor="middle" x="400" y="-81.8" font-family="Times New Roman,serif" font-size="14.00">Submission</text>
</a>
</g>
</g>
<!-- node_11 -->
<g id="node18" class="node"><title>node_11</title>
<g id="a_node18"><a xlink:href="https://www.ijcai-18.org/" xlink:title="European Conference on Artificial Intelligence" target="_blank">
<polygon fill="none" stroke="black" points="677,-117 595,-117 595,-79 677,-79 677,-117"/>
<text text-anchor="middle" x="636" y="-101.8" font-family="Times New Roman,serif" font-size="14.00">ECAI</text>
<text text-anchor="middle" x="636" y="-86.8" font-family="Times New Roman,serif" font-size="14.00">Notification</text>
</a>
</g>
</g>
<!-- node_6&#45;&gt;node_11 -->
<g id="edge6" class="edge"><title>node_6&#45;&gt;node_11</title>
<path fill="none" stroke="black" d="M441.226,-93.8595C480.942,-94.7082 541.791,-96.0083 584.686,-96.9249"/>
<polygon fill="black" stroke="black" points="584.836,-100.429 594.908,-97.1433 584.985,-93.4304 584.836,-100.429"/>
</g>
<!-- node_7 -->
<g id="node12" class="node"><title>node_7</title>
<g id="a_node12"><a xlink:href="http://wibih.unomaha.edu/wi" xlink:title="International Conference on Intelligent Agent Technology" target="_blank">
<polygon fill="none" stroke="black" points="441,-168 359,-168 359,-130 441,-130 441,-168"/>
<text text-anchor="middle" x="400" y="-152.8" font-family="Times New Roman,serif" font-size="14.00">IAT</text>
<text text-anchor="middle" x="400" y="-137.8" font-family="Times New Roman,serif" font-size="14.00">Submission</text>
</a>
</g>
</g>
<!-- node_12 -->
<g id="node19" class="node"><title>node_12</title>
<g id="a_node19"><a xlink:href="http://wibih.unomaha.edu/wi" xlink:title="International Conference on Intelligent Agent Technology" target="_blank">
<polygon fill="none" stroke="black" points="677,-173 595,-173 595,-135 677,-135 677,-173"/>
<text text-anchor="middle" x="636" y="-157.8" font-family="Times New Roman,serif" font-size="14.00">IAT</text>
<text text-anchor="middle" x="636" y="-142.8" font-family="Times New Roman,serif" font-size="14.00">Notification</text>
</a>
</g>
</g>
<!-- node_7&#45;&gt;node_12 -->
<g id="edge7" class="edge"><title>node_7&#45;&gt;node_12</title>
<path fill="none" stroke="black" d="M441.226,-149.86C480.942,-150.708 541.791,-152.008 584.686,-152.925"/>
<polygon fill="black" stroke="black" points="584.836,-156.429 594.908,-153.143 584.985,-149.43 584.836,-156.429"/>
</g>
<!-- order_node_5 -->
<!-- order_node_4&#45;&gt;order_node_5 -->
<!-- node_9 -->
<g id="node15" class="node"><title>node_9</title>
<g id="a_node15"><a xlink:href="http://www.kr.org/" xlink:title="International Conference on Principles of Knowledge Representation and Reasoning" target="_blank">
<polygon fill="none" stroke="black" points="559,-385.5 477,-385.5 477,-332.5 559,-332.5 559,-385.5"/>
<text text-anchor="middle" x="518" y="-370.3" font-family="Times New Roman,serif" font-size="14.00">KR</text>
<text text-anchor="middle" x="518" y="-355.3" font-family="Times New Roman,serif" font-size="14.00">Abstracts</text>
<text text-anchor="middle" x="518" y="-340.3" font-family="Times New Roman,serif" font-size="14.00">Submission</text>
</a>
</g>
</g>
<!-- node_15 -->
<g id="node23" class="node"><title>node_15</title>
<g id="a_node23"><a xlink:href="http://www.kr.org/" xlink:title="International Conference on Principles of Knowledge Representation and Reasoning" target="_blank">
<polygon fill="none" stroke="black" points="795,-378 713,-378 713,-340 795,-340 795,-378"/>
<text text-anchor="middle" x="754" y="-362.8" font-family="Times New Roman,serif" font-size="14.00">KR</text>
<text text-anchor="middle" x="754" y="-347.8" font-family="Times New Roman,serif" font-size="14.00">Notification</text>
</a>
</g>
</g>
<!-- node_9&#45;&gt;node_15 -->
<g id="edge8" class="edge"><title>node_9&#45;&gt;node_15</title>
<path fill="none" stroke="black" d="M559.226,-359C598.942,-359 659.791,-359 702.686,-359"/>
<polygon fill="black" stroke="black" points="702.908,-362.5 712.908,-359 702.908,-355.5 702.908,-362.5"/>
</g>
<!-- order_node_6 -->
<!-- order_node_5&#45;&gt;order_node_6 -->
<!-- order_node_7 -->
<!-- order_node_6&#45;&gt;order_node_7 -->
<!-- node_14 -->
<g id="node22" class="node"><title>node_14</title>
<g id="a_node22"><a xlink:href="http://sbgames.org/" xlink:title="Simposio Brasileiro de Games e Entretenimento Digital" target="_blank">
<polygon fill="none" stroke="black" points="795,-321.5 713,-321.5 713,-268.5 795,-268.5 795,-321.5"/>
<text text-anchor="middle" x="754" y="-306.3" font-family="Times New Roman,serif" font-size="14.00">SBGames</text>
<text text-anchor="middle" x="754" y="-291.3" font-family="Times New Roman,serif" font-size="14.00">Abstracts</text>
<text text-anchor="middle" x="754" y="-276.3" font-family="Times New Roman,serif" font-size="14.00">Submission</text>
</a>
</g>
</g>
<!-- node_16 -->
<g id="node25" class="node"><title>node_16</title>
<g id="a_node25"><a xlink:href="http://sbgames.org/" xlink:title="Simposio Brasileiro de Games e Entretenimento Digital" target="_blank">
<polygon fill="none" stroke="black" points="913,-309 831,-309 831,-271 913,-271 913,-309"/>
<text text-anchor="middle" x="872" y="-293.8" font-family="Times New Roman,serif" font-size="14.00">SBGames</text>
<text text-anchor="middle" x="872" y="-278.8" font-family="Times New Roman,serif" font-size="14.00">Notification</text>
</a>
</g>
</g>
<!-- node_14&#45;&gt;node_16 -->
<g id="edge9" class="edge"><title>node_14&#45;&gt;node_16</title>
<path fill="none" stroke="black" d="M795.246,-293.265C803.433,-292.912 812.144,-292.537 820.632,-292.171"/>
<polygon fill="black" stroke="black" points="820.986,-295.659 830.826,-291.732 820.684,-288.666 820.986,-295.659"/>
</g>
<!-- order_node_8 -->
<!-- order_node_7&#45;&gt;order_node_8 -->
<!-- order_node_9 -->
<!-- order_node_8&#45;&gt;order_node_9 -->
<!-- node_17 -->
<g id="node27" class="node"><title>node_17</title>
<g id="a_node27"><a xlink:href="http://www.icra2018.org/" xlink:title="International Conference on Robotics and Automation" target="_blank">
<polygon fill="none" stroke="black" points="1031,-451 949,-451 949,-413 1031,-413 1031,-451"/>
<text text-anchor="middle" x="990" y="-435.8" font-family="Times New Roman,serif" font-size="14.00">ICRA</text>
<text text-anchor="middle" x="990" y="-420.8" font-family="Times New Roman,serif" font-size="14.00">Submission</text>
</a>
</g>
</g>
<!-- node_29 -->
<g id="node43" class="node"><title>node_29</title>
<g id="a_node43"><a xlink:href="http://www.icra2018.org/" xlink:title="International Conference on Robotics and Automation" target="_blank">
<polygon fill="none" stroke="black" points="1477.6,-323 1395.6,-323 1395.6,-285 1477.6,-285 1477.6,-323"/>
<text text-anchor="middle" x="1436.6" y="-307.8" font-family="Times New Roman,serif" font-size="14.00">ICRA</text>
<text text-anchor="middle" x="1436.6" y="-292.8" font-family="Times New Roman,serif" font-size="14.00">Notification</text>
</a>
</g>
</g>
<!-- node_17&#45;&gt;node_29 -->
<g id="edge10" class="edge"><title>node_17&#45;&gt;node_29</title>
<path fill="none" stroke="black" d="M1031.4,-437.864C1087.74,-444.436 1192.28,-450.744 1275,-422 1329.3,-403.131 1380.77,-359.048 1410.21,-330.43"/>
<polygon fill="black" stroke="black" points="1412.91,-332.678 1417.56,-323.157 1407.99,-327.702 1412.91,-332.678"/>
</g>
<!-- node_18 -->
<g id="node28" class="node"><title>node_18</title>
<g id="a_node28"><a xlink:href="http://www.sigapp.org/sac/" xlink:title="Symposium On Applied Computing" target="_blank">
<polygon fill="none" stroke="black" points="1031,-394.5 949,-394.5 949,-341.5 1031,-341.5 1031,-394.5"/>
<text text-anchor="middle" x="990" y="-379.3" font-family="Times New Roman,serif" font-size="14.00">SAC</text>
<text text-anchor="middle" x="990" y="-364.3" font-family="Times New Roman,serif" font-size="14.00">Abstracts</text>
<text text-anchor="middle" x="990" y="-349.3" font-family="Times New Roman,serif" font-size="14.00">Submission</text>
</a>
</g>
</g>
<!-- node_24 -->
<g id="node36" class="node"><title>node_24</title>
<g id="a_node36"><a xlink:href="http://www.sigapp.org/sac/" xlink:title="Symposium On Applied Computing" target="_blank">
<polygon fill="none" stroke="black" points="1267,-387 1185,-387 1185,-349 1267,-349 1267,-387"/>
<text text-anchor="middle" x="1226" y="-371.8" font-family="Times New Roman,serif" font-size="14.00">SAC</text>
<text text-anchor="middle" x="1226" y="-356.8" font-family="Times New Roman,serif" font-size="14.00">Notification</text>
</a>
</g>
</g>
<!-- node_18&#45;&gt;node_24 -->
<g id="edge11" class="edge"><title>node_18&#45;&gt;node_24</title>
<path fill="none" stroke="black" d="M1031.23,-368C1070.94,-368 1131.79,-368 1174.69,-368"/>
<polygon fill="black" stroke="black" points="1174.91,-371.5 1184.91,-368 1174.91,-364.5 1174.91,-371.5"/>
</g>
<!-- node_19 -->
<g id="node29" class="node"><title>node_19</title>
<g id="a_node29"><a xlink:href="http://www.aaai.org/Conferences/conferences.php" xlink:title="Association for the Advancement of Artificial Intelligence" target="_blank">
<polygon fill="none" stroke="black" points="1031,-323.5 949,-323.5 949,-270.5 1031,-270.5 1031,-323.5"/>
<text text-anchor="middle" x="990" y="-308.3" font-family="Times New Roman,serif" font-size="14.00">AAAI</text>
<text text-anchor="middle" x="990" y="-293.3" font-family="Times New Roman,serif" font-size="14.00">Abstracts</text>
<text text-anchor="middle" x="990" y="-278.3" font-family="Times New Roman,serif" font-size="14.00">Submission</text>
</a>
</g>
</g>
<!-- node_23 -->
<g id="node35" class="node"><title>node_23</title>
<g id="a_node35"><a xlink:href="http://www.aaai.org/Conferences/conferences.php" xlink:title="Association for the Advancement of Artificial Intelligence" target="_blank">
<polygon fill="none" stroke="black" points="1267,-331 1185,-331 1185,-293 1267,-293 1267,-331"/>
<text text-anchor="middle" x="1226" y="-315.8" font-family="Times New Roman,serif" font-size="14.00">AAAI</text>
<text text-anchor="middle" x="1226" y="-300.8" font-family="Times New Roman,serif" font-size="14.00">Notification</text>
</a>
</g>
</g>
<!-- node_19&#45;&gt;node_23 -->
<g id="edge12" class="edge"><title>node_19&#45;&gt;node_23</title>
<path fill="none" stroke="black" d="M1031.23,-299.579C1070.94,-302.125 1131.79,-306.025 1174.69,-308.775"/>
<polygon fill="black" stroke="black" points="1174.7,-312.283 1184.91,-309.43 1175.15,-305.297 1174.7,-312.283"/>
</g>
<!-- node_20 -->
<g id="node30" class="node"><title>node_20</title>
<g id="a_node30"><a xlink:href="https://eumas2017.ibisc.univ-evry.fr/" xlink:title="European Conference on Multi&#45;Agent Systems" target="_blank">
<polygon fill="none" stroke="black" points="1031,-231.5 949,-231.5 949,-178.5 1031,-178.5 1031,-231.5"/>
<text text-anchor="middle" x="990" y="-216.3" font-family="Times New Roman,serif" font-size="14.00">EUMAS</text>
<text text-anchor="middle" x="990" y="-201.3" font-family="Times New Roman,serif" font-size="14.00">Abstracts</text>
<text text-anchor="middle" x="990" y="-186.3" font-family="Times New Roman,serif" font-size="14.00">Submission</text>
</a>
</g>
</g>
<!-- node_21 -->
<g id="node32" class="node"><title>node_21</title>
<g id="a_node32"><a xlink:href="https://eumas2017.ibisc.univ-evry.fr/" xlink:title="European Conference on Multi&#45;Agent Systems" target="_blank">
<polygon fill="none" stroke="black" points="1149,-122 1067,-122 1067,-84 1149,-84 1149,-122"/>
<text text-anchor="middle" x="1108" y="-106.8" font-family="Times New Roman,serif" font-size="14.00">EUMAS</text>
<text text-anchor="middle" x="1108" y="-91.8" font-family="Times New Roman,serif" font-size="14.00">Notification</text>
</a>
</g>
</g>
<!-- node_20&#45;&gt;node_21 -->
<g id="edge13" class="edge"><title>node_20&#45;&gt;node_21</title>
<path fill="none" stroke="black" d="M1012.25,-178.152C1024.87,-163.217 1041.74,-144.896 1059,-131 1060.34,-129.919 1061.73,-128.852 1063.16,-127.802"/>
<polygon fill="black" stroke="black" points="1065.32,-130.56 1071.58,-122.01 1061.36,-124.791 1065.32,-130.56"/>
</g>
<!-- order_node_10 -->
<!-- order_node_9&#45;&gt;order_node_10 -->
<!-- node_22 -->
<g id="node33" class="node"><title>node_22</title>
<g id="a_node33"><a xlink:href="http://www.icaart.org/" xlink:title="International Conference on Agents and Artificial Intelligence" target="_blank">
<polygon fill="none" stroke="black" points="1149,-178 1067,-178 1067,-140 1149,-140 1149,-178"/>
<text text-anchor="middle" x="1108" y="-162.8" font-family="Times New Roman,serif" font-size="14.00">ICAART</text>
<text text-anchor="middle" x="1108" y="-147.8" font-family="Times New Roman,serif" font-size="14.00">Submission</text>
</a>
</g>
</g>
<!-- node_28 -->
<g id="node40" class="node"><title>node_28</title>
<g id="a_node40"><a xlink:href="http://www.icaart.org/" xlink:title="International Conference on Agents and Artificial Intelligence" target="_blank">
<polygon fill="none" stroke="black" points="1267,-54 1185,-54 1185,-16 1267,-16 1267,-54"/>
<text text-anchor="middle" x="1226" y="-38.8" font-family="Times New Roman,serif" font-size="14.00">ICAART</text>
<text text-anchor="middle" x="1226" y="-23.8" font-family="Times New Roman,serif" font-size="14.00">Notification</text>
</a>
</g>
</g>
<!-- node_22&#45;&gt;node_28 -->
<g id="edge14" class="edge"><title>node_22&#45;&gt;node_28</title>
<path fill="none" stroke="black" d="M1148.31,-139.701C1151.53,-137.087 1154.5,-134.19 1157,-131 1176.42,-106.198 1157.58,-87.8016 1177,-63 1177.47,-62.4019 1177.95,-61.814 1178.45,-61.2364"/>
<polygon fill="black" stroke="black" points="1180.89,-63.7459 1185.69,-54.2987 1176.05,-58.6931 1180.89,-63.7459"/>
</g>
<!-- order_node_11 -->
<!-- order_node_10&#45;&gt;order_node_11 -->
<!-- node_25 -->
<g id="node37" class="node"><title>node_25</title>
<g id="a_node37"><a xlink:href="http://www.icaps-conference.org/" xlink:title="International Conference on Automated Planning and Scheduling" target="_blank">
<polygon fill="none" stroke="black" points="1267,-125.5 1185,-125.5 1185,-72.5 1267,-72.5 1267,-125.5"/>
<text text-anchor="middle" x="1226" y="-110.3" font-family="Times New Roman,serif" font-size="14.00">ICAPS</text>
<text text-anchor="middle" x="1226" y="-95.3" font-family="Times New Roman,serif" font-size="14.00">Abstracts</text>
<text text-anchor="middle" x="1226" y="-80.3" font-family="Times New Roman,serif" font-size="14.00">Submission</text>
</a>
</g>
</g>
<!-- node_30 -->
<g id="node44" class="node"><title>node_30</title>
<g id="a_node44"><a xlink:href="http://www.icaps-conference.org/" xlink:title="International Conference on Automated Planning and Scheduling" target="_blank">
<polygon fill="none" stroke="black" points="1477.6,-133 1395.6,-133 1395.6,-95 1477.6,-95 1477.6,-133"/>
<text text-anchor="middle" x="1436.6" y="-117.8" font-family="Times New Roman,serif" font-size="14.00">ICAPS</text>
<text text-anchor="middle" x="1436.6" y="-102.8" font-family="Times New Roman,serif" font-size="14.00">Notification</text>
</a>
</g>
</g>
<!-- node_25&#45;&gt;node_30 -->
<g id="edge15" class="edge"><title>node_25&#45;&gt;node_30</title>
<path fill="none" stroke="black" d="M1267.22,-101.892C1300.84,-104.31 1348.96,-107.77 1385.16,-110.373"/>
<polygon fill="black" stroke="black" points="1385.28,-113.89 1395.5,-111.117 1385.78,-106.908 1385.28,-113.89"/>
</g>
<!-- node_26 -->
<g id="node38" class="node"><title>node_26</title>
<g id="a_node38"><a xlink:href="http://www.ifaamas.org/" xlink:title="International Conference on Autonomous Agents and Multiagent Systems" target="_blank">
<polygon fill="none" stroke="black" points="1267,-274.5 1185,-274.5 1185,-221.5 1267,-221.5 1267,-274.5"/>
<text text-anchor="middle" x="1226" y="-259.3" font-family="Times New Roman,serif" font-size="14.00">AAMAS</text>
<text text-anchor="middle" x="1226" y="-244.3" font-family="Times New Roman,serif" font-size="14.00">Abstracts</text>
<text text-anchor="middle" x="1226" y="-229.3" font-family="Times New Roman,serif" font-size="14.00">Submission</text>
</a>
</g>
</g>
<!-- node_31 -->
<g id="node45" class="node"><title>node_31</title>
<g id="a_node45"><a xlink:href="http://www.ifaamas.org/" xlink:title="International Conference on Autonomous Agents and Multiagent Systems" target="_blank">
<polygon fill="none" stroke="black" points="1477.6,-267 1395.6,-267 1395.6,-229 1477.6,-229 1477.6,-267"/>
<text text-anchor="middle" x="1436.6" y="-251.8" font-family="Times New Roman,serif" font-size="14.00">AAMAS</text>
<text text-anchor="middle" x="1436.6" y="-236.8" font-family="Times New Roman,serif" font-size="14.00">Notification</text>
</a>
</g>
</g>
<!-- node_26&#45;&gt;node_31 -->
<g id="edge16" class="edge"><title>node_26&#45;&gt;node_31</title>
<path fill="none" stroke="black" d="M1267.22,-248C1300.84,-248 1348.96,-248 1385.16,-248"/>
<polygon fill="black" stroke="black" points="1385.5,-251.5 1395.5,-248 1385.5,-244.5 1385.5,-251.5"/>
</g>
<!-- node_27 -->
<g id="node39" class="node"><title>node_27</title>
<g id="a_node39"><a xlink:href="http://www.flairs.com/" xlink:title="Florida Artificial Intelligence Research Society" target="_blank">
<polygon fill="none" stroke="black" points="1267,-203 1185,-203 1185,-165 1267,-165 1267,-203"/>
<text text-anchor="middle" x="1226" y="-187.8" font-family="Times New Roman,serif" font-size="14.00">FLAIRS</text>
<text text-anchor="middle" x="1226" y="-172.8" font-family="Times New Roman,serif" font-size="14.00">Submission</text>
</a>
</g>
</g>
<!-- node_32 -->
<g id="node46" class="node"><title>node_32</title>
<g id="a_node46"><a xlink:href="http://www.flairs.com/" xlink:title="Florida Artificial Intelligence Research Society" target="_blank">
<polygon fill="none" stroke="black" points="1477.6,-211 1395.6,-211 1395.6,-173 1477.6,-173 1477.6,-211"/>
<text text-anchor="middle" x="1436.6" y="-195.8" font-family="Times New Roman,serif" font-size="14.00">FLAIRS</text>
<text text-anchor="middle" x="1436.6" y="-180.8" font-family="Times New Roman,serif" font-size="14.00">Notification</text>
</a>
</g>
</g>
<!-- node_27&#45;&gt;node_32 -->
<g id="edge17" class="edge"><title>node_27&#45;&gt;node_32</title>
<path fill="none" stroke="black" d="M1267.22,-185.542C1300.84,-186.832 1348.96,-188.677 1385.16,-190.066"/>
<polygon fill="black" stroke="black" points="1385.38,-193.576 1395.5,-190.462 1385.64,-186.582 1385.38,-193.576"/>
</g>
<!-- order_node_12 -->
<!-- order_node_11&#45;&gt;order_node_12 -->
</g>
</svg>
