<?xml version="1.0" encoding="UTF-8" standalone="no"?>
<!DOCTYPE svg PUBLIC "-//W3C//DTD SVG 1.1//EN"
 "http://www.w3.org/Graphics/SVG/1.1/DTD/svg11.dtd">
<!-- Generated by graphviz version 2.38.0 (20140413.2041)
 -->
<!-- Title: conferences Pages: 1 -->
<svg width="1502pt" height="513pt"
 viewBox="0.00 0.00 1501.60 512.50" xmlns="http://www.w3.org/2000/svg" xmlns:xlink="http://www.w3.org/1999/xlink">
<g id="graph0" class="graph" transform="scale(1 1) rotate(0) translate(4 508.504)">
<title>conferences</title>
<polygon fill="white" stroke="none" points="-4,4 -4,-508.504 1497.6,-508.504 1497.6,4 -4,4"/>
<g id="clust7" class="cluster"><title>cluster_6</title>
<polygon fill="none" stroke="black" points="705,-326.504 705,-496.504 803,-496.504 803,-326.504 705,-326.504"/>
<text text-anchor="middle" x="754" y="-481.304" font-family="Times New Roman,serif" font-size="14.00">July</text>
</g>
<g id="clust8" class="cluster"><title>cluster_7</title>
<polygon fill="none" stroke="black" points="823,-330.504 823,-429.504 921,-429.504 921,-330.504 823,-330.504"/>
<text text-anchor="middle" x="872" y="-414.304" font-family="Times New Roman,serif" font-size="14.00">August</text>
</g>
<g id="clust9" class="cluster"><title>cluster_8</title>
<polygon fill="none" stroke="black" points="941,-132.504 941,-444.504 1039,-444.504 1039,-132.504 941,-132.504"/>
<text text-anchor="middle" x="990" y="-429.304" font-family="Times New Roman,serif" font-size="14.00">September</text>
</g>
<g id="clust10" class="cluster"><title>cluster_9</title>
<polygon fill="none" stroke="black" points="1059,-318.504 1059,-473.504 1157,-473.504 1157,-318.504 1059,-318.504"/>
<text text-anchor="middle" x="1108" y="-458.304" font-family="Times New Roman,serif" font-size="14.00">October</text>
</g>
<g id="clust11" class="cluster"><title>cluster_10</title>
<polygon fill="none" stroke="black" points="1177,-12.5039 1177,-422.504 1275,-422.504 1275,-12.5039 1177,-12.5039"/>
<text text-anchor="middle" x="1226" y="-407.304" font-family="Times New Roman,serif" font-size="14.00">November</text>
</g>
<g id="clust12" class="cluster"><title>cluster_11</title>
<polygon fill="none" stroke="black" points="1295,-311.504 1295,-354.504 1368.6,-354.504 1368.6,-311.504 1295,-311.504"/>
<text text-anchor="middle" x="1331.8" y="-339.304" font-family="Times New Roman,serif" font-size="14.00">December</text>
</g>
<g id="clust13" class="cluster"><title>cluster_12</title>
<polygon fill="none" stroke="black" points="1387.6,-20.5039 1387.6,-287.504 1485.6,-287.504 1485.6,-20.5039 1387.6,-20.5039"/>
<text text-anchor="middle" x="1436.6" y="-272.304" font-family="Times New Roman,serif" font-size="14.00">January</text>
</g>
<g id="clust1" class="cluster"><title>cluster_0</title>
<polygon fill="none" stroke="black" points="8,-236.504 8,-335.504 95,-335.504 95,-236.504 8,-236.504"/>
<text text-anchor="middle" x="51.5" y="-320.304" font-family="Times New Roman,serif" font-size="14.00">January</text>
</g>
<g id="clust2" class="cluster"><title>cluster_1</title>
<polygon fill="none" stroke="black" points="115,-236.504 115,-335.504 213,-335.504 213,-236.504 115,-236.504"/>
<text text-anchor="middle" x="164" y="-320.304" font-family="Times New Roman,serif" font-size="14.00">February</text>
</g>
<g id="clust3" class="cluster"><title>cluster_2</title>
<polygon fill="none" stroke="black" points="233,-118.504 233,-273.504 331,-273.504 331,-118.504 233,-118.504"/>
<text text-anchor="middle" x="282" y="-258.304" font-family="Times New Roman,serif" font-size="14.00">March</text>
</g>
<g id="clust4" class="cluster"><title>cluster_3</title>
<polygon fill="none" stroke="black" points="351,-170.504 351,-453.504 449,-453.504 449,-170.504 351,-170.504"/>
<text text-anchor="middle" x="400" y="-438.304" font-family="Times New Roman,serif" font-size="14.00">April</text>
</g>
<g id="clust5" class="cluster"><title>cluster_4</title>
<polygon fill="none" stroke="black" points="469,-354.504 469,-468.504 567,-468.504 567,-354.504 469,-354.504"/>
<text text-anchor="middle" x="518" y="-453.304" font-family="Times New Roman,serif" font-size="14.00">May</text>
</g>
<g id="clust6" class="cluster"><title>cluster_5</title>
<polygon fill="none" stroke="black" points="587,-74.5039 587,-397.504 685,-397.504 685,-74.5039 587,-74.5039"/>
<text text-anchor="middle" x="636" y="-382.304" font-family="Times New Roman,serif" font-size="14.00">June</text>
</g>
<!-- order_node_0 -->
<!-- order_node_1 -->
<!-- order_node_0&#45;&gt;order_node_1 -->
<!-- node_0 -->
<g id="node2" class="node"><title>node_0</title>
<g id="a_node2"><a xlink:href="http://www.ijcai.org/" xlink:title="International Joint Conference on Artificial Intelligence" target="_blank">
<polygon fill="none" stroke="black" points="87,-304.504 16,-304.504 16,-266.504 87,-266.504 87,-304.504"/>
<text text-anchor="middle" x="51.5" y="-289.304" font-family="Times New Roman,serif" font-size="14.00">IJCAI</text>
<text text-anchor="middle" x="51.5" y="-274.304" font-family="Times New Roman,serif" font-size="14.00">Abstracts</text>
</a>
</g>
</g>
<!-- node_1 -->
<g id="node4" class="node"><title>node_1</title>
<g id="a_node4"><a xlink:href="http://www.ijcai.org/" xlink:title="International Joint Conference on Artificial Intelligence" target="_blank">
<polygon fill="none" stroke="black" points="205,-304.504 123,-304.504 123,-266.504 205,-266.504 205,-304.504"/>
<text text-anchor="middle" x="164" y="-289.304" font-family="Times New Roman,serif" font-size="14.00">IJCAI</text>
<text text-anchor="middle" x="164" y="-274.304" font-family="Times New Roman,serif" font-size="14.00">Submission</text>
</a>
</g>
</g>
<!-- node_0&#45;&gt;node_1 -->
<g id="edge1" class="edge"><title>node_0&#45;&gt;node_1</title>
<path fill="none" stroke="black" d="M87.1597,-285.504C95.2573,-285.504 104.043,-285.504 112.668,-285.504"/>
<polygon fill="black" stroke="black" points="112.669,-289.004 122.668,-285.504 112.668,-282.004 112.669,-289.004"/>
</g>
<!-- order_node_2 -->
<!-- order_node_1&#45;&gt;order_node_2 -->
<!-- node_4 -->
<g id="node9" class="node"><title>node_4</title>
<g id="a_node9"><a xlink:href="http://www.ijcai.org/" xlink:title="International Joint Conference on Artificial Intelligence" target="_blank">
<polygon fill="none" stroke="black" points="441,-422.504 359,-422.504 359,-384.504 441,-384.504 441,-422.504"/>
<text text-anchor="middle" x="400" y="-407.304" font-family="Times New Roman,serif" font-size="14.00">IJCAI</text>
<text text-anchor="middle" x="400" y="-392.304" font-family="Times New Roman,serif" font-size="14.00">Notification</text>
</a>
</g>
</g>
<!-- node_1&#45;&gt;node_4 -->
<g id="edge2" class="edge"><title>node_1&#45;&gt;node_4</title>
<path fill="none" stroke="black" d="M202.856,-304.594C243.552,-325.116 308.298,-357.765 352.169,-379.888"/>
<polygon fill="black" stroke="black" points="350.693,-383.064 361.198,-384.441 353.845,-376.814 350.693,-383.064"/>
</g>
<!-- order_node_3 -->
<!-- order_node_2&#45;&gt;order_node_3 -->
<!-- node_2 -->
<g id="node6" class="node"><title>node_2</title>
<g id="a_node6"><a xlink:href="http://auai.org/uai2017/index.php" xlink:title="Conference on Uncertainty in Artificial Intelligence" target="_blank">
<polygon fill="none" stroke="black" points="323,-220.504 241,-220.504 241,-182.504 323,-182.504 323,-220.504"/>
<text text-anchor="middle" x="282" y="-205.304" font-family="Times New Roman,serif" font-size="14.00">UAI</text>
<text text-anchor="middle" x="282" y="-190.304" font-family="Times New Roman,serif" font-size="14.00">Submission</text>
</a>
</g>
</g>
<!-- node_11 -->
<g id="node18" class="node"><title>node_11</title>
<g id="a_node18"><a xlink:href="http://auai.org/uai2017/index.php" xlink:title="Conference on Uncertainty in Artificial Intelligence" target="_blank">
<polygon fill="none" stroke="black" points="677,-176.504 595,-176.504 595,-138.504 677,-138.504 677,-176.504"/>
<text text-anchor="middle" x="636" y="-161.304" font-family="Times New Roman,serif" font-size="14.00">UAI</text>
<text text-anchor="middle" x="636" y="-146.304" font-family="Times New Roman,serif" font-size="14.00">Notification</text>
</a>
</g>
</g>
<!-- node_2&#45;&gt;node_11 -->
<g id="edge3" class="edge"><title>node_2&#45;&gt;node_11</title>
<path fill="none" stroke="black" d="M312.984,-182.433C324.432,-176.147 337.89,-169.901 351,-166.504 430.571,-145.888 526.878,-148.297 584.423,-152.491"/>
<polygon fill="black" stroke="black" points="584.463,-156.005 594.704,-153.29 585.005,-149.026 584.463,-156.005"/>
</g>
<!-- node_3 -->
<g id="node7" class="node"><title>node_3</title>
<g id="a_node7"><a xlink:href="http://www.iros.org/" xlink:title="International Conference on Intelligent Robots and Systems" target="_blank">
<polygon fill="none" stroke="black" points="323,-164.504 241,-164.504 241,-126.504 323,-126.504 323,-164.504"/>
<text text-anchor="middle" x="282" y="-149.304" font-family="Times New Roman,serif" font-size="14.00">IROS</text>
<text text-anchor="middle" x="282" y="-134.304" font-family="Times New Roman,serif" font-size="14.00">Submission</text>
</a>
</g>
</g>
<!-- node_12 -->
<g id="node19" class="node"><title>node_12</title>
<g id="a_node19"><a xlink:href="http://www.iros.org/" xlink:title="International Conference on Intelligent Robots and Systems" target="_blank">
<polygon fill="none" stroke="black" points="677,-120.504 595,-120.504 595,-82.5039 677,-82.5039 677,-120.504"/>
<text text-anchor="middle" x="636" y="-105.304" font-family="Times New Roman,serif" font-size="14.00">IROS</text>
<text text-anchor="middle" x="636" y="-90.3039" font-family="Times New Roman,serif" font-size="14.00">Notification</text>
</a>
</g>
</g>
<!-- node_3&#45;&gt;node_12 -->
<g id="edge4" class="edge"><title>node_3&#45;&gt;node_12</title>
<path fill="none" stroke="black" d="M323.036,-140.499C387.527,-132.438 514.292,-116.592 584.757,-107.784"/>
<polygon fill="black" stroke="black" points="585.242,-111.251 594.731,-106.538 584.374,-104.305 585.242,-111.251"/>
</g>
<!-- order_node_4 -->
<!-- order_node_3&#45;&gt;order_node_4 -->
<!-- node_5 -->
<g id="node10" class="node"><title>node_5</title>
<g id="a_node10"><a xlink:href="http://www.ecai2016.org/" xlink:title="European Conference on Artificial Intelligence" target="_blank">
<polygon fill="none" stroke="black" points="441,-344.504 359,-344.504 359,-306.504 441,-306.504 441,-344.504"/>
<text text-anchor="middle" x="400" y="-329.304" font-family="Times New Roman,serif" font-size="14.00">ECAI</text>
<text text-anchor="middle" x="400" y="-314.304" font-family="Times New Roman,serif" font-size="14.00">Submission</text>
</a>
</g>
</g>
<!-- node_9 -->
<g id="node16" class="node"><title>node_9</title>
<g id="a_node16"><a xlink:href="http://www.ecai2016.org/" xlink:title="European Conference on Artificial Intelligence" target="_blank">
<polygon fill="none" stroke="black" points="677,-344.504 595,-344.504 595,-306.504 677,-306.504 677,-344.504"/>
<text text-anchor="middle" x="636" y="-329.304" font-family="Times New Roman,serif" font-size="14.00">ECAI</text>
<text text-anchor="middle" x="636" y="-314.304" font-family="Times New Roman,serif" font-size="14.00">Notification</text>
</a>
</g>
</g>
<!-- node_5&#45;&gt;node_9 -->
<g id="edge5" class="edge"><title>node_5&#45;&gt;node_9</title>
<path fill="none" stroke="black" d="M441.226,-325.504C480.942,-325.504 541.791,-325.504 584.686,-325.504"/>
<polygon fill="black" stroke="black" points="584.908,-329.004 594.908,-325.504 584.908,-322.004 584.908,-329.004"/>
</g>
<!-- node_6 -->
<g id="node11" class="node"><title>node_6</title>
<g id="a_node11"><a xlink:href="http://wibih.unomaha.edu/wi" xlink:title="International Conference on Intelligent Agent Technology" target="_blank">
<polygon fill="none" stroke="black" points="441,-288.504 359,-288.504 359,-250.504 441,-250.504 441,-288.504"/>
<text text-anchor="middle" x="400" y="-273.304" font-family="Times New Roman,serif" font-size="14.00">IAT</text>
<text text-anchor="middle" x="400" y="-258.304" font-family="Times New Roman,serif" font-size="14.00">Submission</text>
</a>
</g>
</g>
<!-- node_10 -->
<g id="node17" class="node"><title>node_10</title>
<g id="a_node17"><a xlink:href="http://wibih.unomaha.edu/wi" xlink:title="International Conference on Intelligent Agent Technology" target="_blank">
<polygon fill="none" stroke="black" points="677,-288.504 595,-288.504 595,-250.504 677,-250.504 677,-288.504"/>
<text text-anchor="middle" x="636" y="-273.304" font-family="Times New Roman,serif" font-size="14.00">IAT</text>
<text text-anchor="middle" x="636" y="-258.304" font-family="Times New Roman,serif" font-size="14.00">Notification</text>
</a>
</g>
</g>
<!-- node_6&#45;&gt;node_10 -->
<g id="edge6" class="edge"><title>node_6&#45;&gt;node_10</title>
<path fill="none" stroke="black" d="M441.226,-269.504C480.942,-269.504 541.791,-269.504 584.686,-269.504"/>
<polygon fill="black" stroke="black" points="584.908,-273.004 594.908,-269.504 584.908,-266.004 584.908,-273.004"/>
</g>
<!-- node_7 -->
<g id="node12" class="node"><title>node_7</title>
<g id="a_node12"><a xlink:href="http://software.imdea.org/Conferences/ICLP2016/" xlink:title="International Conference on Logic Programming" target="_blank">
<polygon fill="none" stroke="black" points="441,-232.004 359,-232.004 359,-179.004 441,-179.004 441,-232.004"/>
<text text-anchor="middle" x="400" y="-216.804" font-family="Times New Roman,serif" font-size="14.00">ICLP</text>
<text text-anchor="middle" x="400" y="-201.804" font-family="Times New Roman,serif" font-size="14.00">Abstracts</text>
<text text-anchor="middle" x="400" y="-186.804" font-family="Times New Roman,serif" font-size="14.00">Submission</text>
</a>
</g>
</g>
<!-- node_13 -->
<g id="node20" class="node"><title>node_13</title>
<g id="a_node20"><a xlink:href="http://software.imdea.org/Conferences/ICLP2016/" xlink:title="International Conference on Logic Programming" target="_blank">
<polygon fill="none" stroke="black" points="677,-232.504 595,-232.504 595,-194.504 677,-194.504 677,-232.504"/>
<text text-anchor="middle" x="636" y="-217.304" font-family="Times New Roman,serif" font-size="14.00">ICLP</text>
<text text-anchor="middle" x="636" y="-202.304" font-family="Times New Roman,serif" font-size="14.00">Notification</text>
</a>
</g>
</g>
<!-- node_7&#45;&gt;node_13 -->
<g id="edge7" class="edge"><title>node_7&#45;&gt;node_13</title>
<path fill="none" stroke="black" d="M441.226,-206.879C480.942,-208.237 541.791,-210.317 584.686,-211.784"/>
<polygon fill="black" stroke="black" points="584.794,-215.289 594.908,-212.133 585.033,-208.293 584.794,-215.289"/>
</g>
<!-- order_node_5 -->
<!-- order_node_4&#45;&gt;order_node_5 -->
<!-- node_8 -->
<g id="node14" class="node"><title>node_8</title>
<g id="a_node14"><a xlink:href="http://www.kr.org/" xlink:title="International Conference on Principles of Knowledge Representation and Reasoning" target="_blank">
<polygon fill="none" stroke="black" points="559,-437.004 477,-437.004 477,-384.004 559,-384.004 559,-437.004"/>
<text text-anchor="middle" x="518" y="-421.804" font-family="Times New Roman,serif" font-size="14.00">KR</text>
<text text-anchor="middle" x="518" y="-406.804" font-family="Times New Roman,serif" font-size="14.00">Abstracts</text>
<text text-anchor="middle" x="518" y="-391.804" font-family="Times New Roman,serif" font-size="14.00">Submission</text>
</a>
</g>
</g>
<!-- node_15 -->
<g id="node23" class="node"><title>node_15</title>
<g id="a_node23"><a xlink:href="http://www.kr.org/" xlink:title="International Conference on Principles of Knowledge Representation and Reasoning" target="_blank">
<polygon fill="none" stroke="black" points="795,-465.504 713,-465.504 713,-427.504 795,-427.504 795,-465.504"/>
<text text-anchor="middle" x="754" y="-450.304" font-family="Times New Roman,serif" font-size="14.00">KR</text>
<text text-anchor="middle" x="754" y="-435.304" font-family="Times New Roman,serif" font-size="14.00">Notification</text>
</a>
</g>
</g>
<!-- node_8&#45;&gt;node_15 -->
<g id="edge8" class="edge"><title>node_8&#45;&gt;node_15</title>
<path fill="none" stroke="black" d="M559.226,-416.693C599.026,-422.816 660.048,-432.204 702.958,-438.805"/>
<polygon fill="black" stroke="black" points="702.492,-442.275 712.908,-440.336 703.557,-435.356 702.492,-442.275"/>
</g>
<!-- order_node_6 -->
<!-- order_node_5&#45;&gt;order_node_6 -->
<!-- order_node_7 -->
<!-- order_node_6&#45;&gt;order_node_7 -->
<!-- node_14 -->
<g id="node22" class="node"><title>node_14</title>
<g id="a_node22"><a xlink:href="http://sbgames.org/" xlink:title="Simposio Brasileiro de Games e Entretenimento Digital" target="_blank">
<polygon fill="none" stroke="black" points="795,-409.004 713,-409.004 713,-356.004 795,-356.004 795,-409.004"/>
<text text-anchor="middle" x="754" y="-393.804" font-family="Times New Roman,serif" font-size="14.00">SBGames</text>
<text text-anchor="middle" x="754" y="-378.804" font-family="Times New Roman,serif" font-size="14.00">Abstracts</text>
<text text-anchor="middle" x="754" y="-363.804" font-family="Times New Roman,serif" font-size="14.00">Submission</text>
</a>
</g>
</g>
<!-- node_16 -->
<g id="node25" class="node"><title>node_16</title>
<g id="a_node25"><a xlink:href="http://sbgames.org/" xlink:title="Simposio Brasileiro de Games e Entretenimento Digital" target="_blank">
<polygon fill="none" stroke="black" points="913,-398.504 831,-398.504 831,-360.504 913,-360.504 913,-398.504"/>
<text text-anchor="middle" x="872" y="-383.304" font-family="Times New Roman,serif" font-size="14.00">SBGames</text>
<text text-anchor="middle" x="872" y="-368.304" font-family="Times New Roman,serif" font-size="14.00">Notification</text>
</a>
</g>
</g>
<!-- node_14&#45;&gt;node_16 -->
<g id="edge9" class="edge"><title>node_14&#45;&gt;node_16</title>
<path fill="none" stroke="black" d="M795.246,-381.463C803.433,-381.251 812.144,-381.026 820.632,-380.807"/>
<polygon fill="black" stroke="black" points="820.919,-384.3 830.826,-380.543 820.738,-377.303 820.919,-384.3"/>
</g>
<!-- order_node_8 -->
<!-- order_node_7&#45;&gt;order_node_8 -->
<!-- order_node_9 -->
<!-- order_node_8&#45;&gt;order_node_9 -->
<!-- node_17 -->
<g id="node27" class="node"><title>node_17</title>
<g id="a_node27"><a xlink:href="http://www.icra2017.org/" xlink:title="International Conference on Robotics and Automation" target="_blank">
<polygon fill="none" stroke="black" points="1031,-178.504 949,-178.504 949,-140.504 1031,-140.504 1031,-178.504"/>
<text text-anchor="middle" x="990" y="-163.304" font-family="Times New Roman,serif" font-size="14.00">ICRA</text>
<text text-anchor="middle" x="990" y="-148.304" font-family="Times New Roman,serif" font-size="14.00">Submission</text>
</a>
</g>
</g>
<!-- node_29 -->
<g id="node43" class="node"><title>node_29</title>
<g id="a_node43"><a xlink:href="http://www.icra2017.org/" xlink:title="International Conference on Robotics and Automation" target="_blank">
<polygon fill="none" stroke="black" points="1477.6,-66.5039 1395.6,-66.5039 1395.6,-28.5039 1477.6,-28.5039 1477.6,-66.5039"/>
<text text-anchor="middle" x="1436.6" y="-51.3039" font-family="Times New Roman,serif" font-size="14.00">ICRA</text>
<text text-anchor="middle" x="1436.6" y="-36.3039" font-family="Times New Roman,serif" font-size="14.00">Notification</text>
</a>
</g>
</g>
<!-- node_17&#45;&gt;node_29 -->
<g id="edge10" class="edge"><title>node_17&#45;&gt;node_29</title>
<path fill="none" stroke="black" d="M1004.67,-140.464C1017.46,-123.466 1037.76,-98.5419 1059,-80.5039 1105.83,-40.739 1117.85,-25.1235 1177,-8.50388 1248.19,11.4998 1333.46,-9.73309 1386.09,-27.8305"/>
<polygon fill="black" stroke="black" points="1384.93,-31.1329 1395.52,-31.1626 1387.26,-24.5324 1384.93,-31.1329"/>
</g>
<!-- node_18 -->
<g id="node28" class="node"><title>node_18</title>
<g id="a_node28"><a xlink:href="http://www.sigapp.org/sac/" xlink:title="Symposium On Applied Computing" target="_blank">
<polygon fill="none" stroke="black" points="1031,-321.004 949,-321.004 949,-268.004 1031,-268.004 1031,-321.004"/>
<text text-anchor="middle" x="990" y="-305.804" font-family="Times New Roman,serif" font-size="14.00">SAC</text>
<text text-anchor="middle" x="990" y="-290.804" font-family="Times New Roman,serif" font-size="14.00">Abstracts</text>
<text text-anchor="middle" x="990" y="-275.804" font-family="Times New Roman,serif" font-size="14.00">Submission</text>
</a>
</g>
</g>
<!-- node_24 -->
<g id="node36" class="node"><title>node_24</title>
<g id="a_node36"><a xlink:href="http://www.sigapp.org/sac/" xlink:title="Symposium On Applied Computing" target="_blank">
<polygon fill="none" stroke="black" points="1267,-313.504 1185,-313.504 1185,-275.504 1267,-275.504 1267,-313.504"/>
<text text-anchor="middle" x="1226" y="-298.304" font-family="Times New Roman,serif" font-size="14.00">SAC</text>
<text text-anchor="middle" x="1226" y="-283.304" font-family="Times New Roman,serif" font-size="14.00">Notification</text>
</a>
</g>
</g>
<!-- node_18&#45;&gt;node_24 -->
<g id="edge11" class="edge"><title>node_18&#45;&gt;node_24</title>
<path fill="none" stroke="black" d="M1031.23,-294.504C1070.94,-294.504 1131.79,-294.504 1174.69,-294.504"/>
<polygon fill="black" stroke="black" points="1174.91,-298.004 1184.91,-294.504 1174.91,-291.004 1174.91,-298.004"/>
</g>
<!-- node_19 -->
<g id="node29" class="node"><title>node_19</title>
<g id="a_node29"><a xlink:href="http://www.aaai.org/Conferences/conferences.php" xlink:title="Association for the Advancement of Artificial Intelligence" target="_blank">
<polygon fill="none" stroke="black" points="1031,-250.004 949,-250.004 949,-197.004 1031,-197.004 1031,-250.004"/>
<text text-anchor="middle" x="990" y="-234.804" font-family="Times New Roman,serif" font-size="14.00">AAAI</text>
<text text-anchor="middle" x="990" y="-219.804" font-family="Times New Roman,serif" font-size="14.00">Abstracts</text>
<text text-anchor="middle" x="990" y="-204.804" font-family="Times New Roman,serif" font-size="14.00">Submission</text>
</a>
</g>
</g>
<!-- node_23 -->
<g id="node35" class="node"><title>node_23</title>
<g id="a_node35"><a xlink:href="http://www.aaai.org/Conferences/conferences.php" xlink:title="Association for the Advancement of Artificial Intelligence" target="_blank">
<polygon fill="none" stroke="black" points="1267,-58.5039 1185,-58.5039 1185,-20.5039 1267,-20.5039 1267,-58.5039"/>
<text text-anchor="middle" x="1226" y="-43.3039" font-family="Times New Roman,serif" font-size="14.00">AAAI</text>
<text text-anchor="middle" x="1226" y="-28.3039" font-family="Times New Roman,serif" font-size="14.00">Notification</text>
</a>
</g>
</g>
<!-- node_19&#45;&gt;node_23 -->
<g id="edge12" class="edge"><title>node_19&#45;&gt;node_23</title>
<path fill="none" stroke="black" d="M1027.13,-196.851C1031.16,-193.742 1035.19,-190.581 1039,-187.504 1102.22,-136.42 1110.94,-114.856 1177,-67.5039 1178.59,-66.3657 1180.22,-65.2324 1181.89,-64.1103"/>
<polygon fill="black" stroke="black" points="1183.9,-66.9795 1190.42,-58.6228 1180.11,-61.0941 1183.9,-66.9795"/>
</g>
<!-- node_20 -->
<g id="node30" class="node"><title>node_20</title>
<g id="a_node30"><a xlink:href="https://eumas2017.ibisc.univ-evry.fr/" xlink:title="European Conference on Multi&#45;Agent Systems" target="_blank">
<polygon fill="none" stroke="black" points="1031,-413.004 949,-413.004 949,-360.004 1031,-360.004 1031,-413.004"/>
<text text-anchor="middle" x="990" y="-397.804" font-family="Times New Roman,serif" font-size="14.00">EUMAS</text>
<text text-anchor="middle" x="990" y="-382.804" font-family="Times New Roman,serif" font-size="14.00">Abstracts</text>
<text text-anchor="middle" x="990" y="-367.804" font-family="Times New Roman,serif" font-size="14.00">Submission</text>
</a>
</g>
</g>
<!-- node_21 -->
<g id="node32" class="node"><title>node_21</title>
<g id="a_node32"><a xlink:href="https://eumas2017.ibisc.univ-evry.fr/" xlink:title="European Conference on Multi&#45;Agent Systems" target="_blank">
<polygon fill="none" stroke="black" points="1149,-442.504 1067,-442.504 1067,-404.504 1149,-404.504 1149,-442.504"/>
<text text-anchor="middle" x="1108" y="-427.304" font-family="Times New Roman,serif" font-size="14.00">EUMAS</text>
<text text-anchor="middle" x="1108" y="-412.304" font-family="Times New Roman,serif" font-size="14.00">Notification</text>
</a>
</g>
</g>
<!-- node_20&#45;&gt;node_21 -->
<g id="edge13" class="edge"><title>node_20&#45;&gt;node_21</title>
<path fill="none" stroke="black" d="M1031.25,-399.341C1039.61,-402.01 1048.53,-404.853 1057.19,-407.617"/>
<polygon fill="black" stroke="black" points="1056.23,-410.985 1066.83,-410.69 1058.36,-404.316 1056.23,-410.985"/>
</g>
<!-- order_node_10 -->
<!-- order_node_9&#45;&gt;order_node_10 -->
<!-- node_22 -->
<g id="node33" class="node"><title>node_22</title>
<g id="a_node33"><a xlink:href="http://www.icaart.org/" xlink:title="International Conference on Agents and Artificial Intelligence" target="_blank">
<polygon fill="none" stroke="black" points="1149,-364.504 1067,-364.504 1067,-326.504 1149,-326.504 1149,-364.504"/>
<text text-anchor="middle" x="1108" y="-349.304" font-family="Times New Roman,serif" font-size="14.00">ICAART</text>
<text text-anchor="middle" x="1108" y="-334.304" font-family="Times New Roman,serif" font-size="14.00">Submission</text>
</a>
</g>
</g>
<!-- node_28 -->
<g id="node40" class="node"><title>node_28</title>
<g id="a_node40"><a xlink:href="http://www.icaart.org/" xlink:title="International Conference on Agents and Artificial Intelligence" target="_blank">
<polygon fill="none" stroke="black" points="1267,-369.504 1185,-369.504 1185,-331.504 1267,-331.504 1267,-369.504"/>
<text text-anchor="middle" x="1226" y="-354.304" font-family="Times New Roman,serif" font-size="14.00">ICAART</text>
<text text-anchor="middle" x="1226" y="-339.304" font-family="Times New Roman,serif" font-size="14.00">Notification</text>
</a>
</g>
</g>
<!-- node_22&#45;&gt;node_28 -->
<g id="edge14" class="edge"><title>node_22&#45;&gt;node_28</title>
<path fill="none" stroke="black" d="M1149.25,-347.239C1157.43,-347.592 1166.14,-347.967 1174.63,-348.333"/>
<polygon fill="black" stroke="black" points="1174.68,-351.838 1184.83,-348.772 1174.99,-344.845 1174.68,-351.838"/>
</g>
<!-- order_node_11 -->
<!-- order_node_10&#45;&gt;order_node_11 -->
<!-- node_25 -->
<g id="node37" class="node"><title>node_25</title>
<g id="a_node37"><a xlink:href="http://www.icaps-conference.org/" xlink:title="International Conference on Automated Planning and Scheduling" target="_blank">
<polygon fill="none" stroke="black" points="1267,-257.004 1185,-257.004 1185,-204.004 1267,-204.004 1267,-257.004"/>
<text text-anchor="middle" x="1226" y="-241.804" font-family="Times New Roman,serif" font-size="14.00">ICAPS</text>
<text text-anchor="middle" x="1226" y="-226.804" font-family="Times New Roman,serif" font-size="14.00">Abstracts</text>
<text text-anchor="middle" x="1226" y="-211.804" font-family="Times New Roman,serif" font-size="14.00">Submission</text>
</a>
</g>
</g>
<!-- node_30 -->
<g id="node44" class="node"><title>node_30</title>
<g id="a_node44"><a xlink:href="http://www.icaps-conference.org/" xlink:title="International Conference on Automated Planning and Scheduling" target="_blank">
<polygon fill="none" stroke="black" points="1477.6,-234.504 1395.6,-234.504 1395.6,-196.504 1477.6,-196.504 1477.6,-234.504"/>
<text text-anchor="middle" x="1436.6" y="-219.304" font-family="Times New Roman,serif" font-size="14.00">ICAPS</text>
<text text-anchor="middle" x="1436.6" y="-204.304" font-family="Times New Roman,serif" font-size="14.00">Notification</text>
</a>
</g>
</g>
<!-- node_25&#45;&gt;node_30 -->
<g id="edge15" class="edge"><title>node_25&#45;&gt;node_30</title>
<path fill="none" stroke="black" d="M1267.22,-227.612C1300.84,-225.194 1348.96,-221.734 1385.16,-219.131"/>
<polygon fill="black" stroke="black" points="1385.78,-222.595 1395.5,-218.387 1385.28,-215.613 1385.78,-222.595"/>
</g>
<!-- node_26 -->
<g id="node38" class="node"><title>node_26</title>
<g id="a_node38"><a xlink:href="http://www.ifaamas.org/" xlink:title="International Conference on Autonomous Agents and Multiagent Systems" target="_blank">
<polygon fill="none" stroke="black" points="1267,-186.004 1185,-186.004 1185,-133.004 1267,-133.004 1267,-186.004"/>
<text text-anchor="middle" x="1226" y="-170.804" font-family="Times New Roman,serif" font-size="14.00">AAMAS</text>
<text text-anchor="middle" x="1226" y="-155.804" font-family="Times New Roman,serif" font-size="14.00">Abstracts</text>
<text text-anchor="middle" x="1226" y="-140.804" font-family="Times New Roman,serif" font-size="14.00">Submission</text>
</a>
</g>
</g>
<!-- node_31 -->
<g id="node45" class="node"><title>node_31</title>
<g id="a_node45"><a xlink:href="http://www.ifaamas.org/" xlink:title="International Conference on Autonomous Agents and Multiagent Systems" target="_blank">
<polygon fill="none" stroke="black" points="1477.6,-178.504 1395.6,-178.504 1395.6,-140.504 1477.6,-140.504 1477.6,-178.504"/>
<text text-anchor="middle" x="1436.6" y="-163.304" font-family="Times New Roman,serif" font-size="14.00">AAMAS</text>
<text text-anchor="middle" x="1436.6" y="-148.304" font-family="Times New Roman,serif" font-size="14.00">Notification</text>
</a>
</g>
</g>
<!-- node_26&#45;&gt;node_31 -->
<g id="edge16" class="edge"><title>node_26&#45;&gt;node_31</title>
<path fill="none" stroke="black" d="M1267.22,-159.504C1300.84,-159.504 1348.96,-159.504 1385.16,-159.504"/>
<polygon fill="black" stroke="black" points="1385.5,-163.004 1395.5,-159.504 1385.5,-156.004 1385.5,-163.004"/>
</g>
<!-- node_27 -->
<g id="node39" class="node"><title>node_27</title>
<g id="a_node39"><a xlink:href="http://www.flairs.com/" xlink:title="Florida Artificial Intelligence Research Society" target="_blank">
<polygon fill="none" stroke="black" points="1267,-114.504 1185,-114.504 1185,-76.5039 1267,-76.5039 1267,-114.504"/>
<text text-anchor="middle" x="1226" y="-99.3039" font-family="Times New Roman,serif" font-size="14.00">FLAIRS</text>
<text text-anchor="middle" x="1226" y="-84.3039" font-family="Times New Roman,serif" font-size="14.00">Submission</text>
</a>
</g>
</g>
<!-- node_32 -->
<g id="node46" class="node"><title>node_32</title>
<g id="a_node46"><a xlink:href="http://www.flairs.com/" xlink:title="Florida Artificial Intelligence Research Society" target="_blank">
<polygon fill="none" stroke="black" points="1477.6,-122.504 1395.6,-122.504 1395.6,-84.5039 1477.6,-84.5039 1477.6,-122.504"/>
<text text-anchor="middle" x="1436.6" y="-107.304" font-family="Times New Roman,serif" font-size="14.00">FLAIRS</text>
<text text-anchor="middle" x="1436.6" y="-92.3039" font-family="Times New Roman,serif" font-size="14.00">Notification</text>
</a>
</g>
</g>
<!-- node_27&#45;&gt;node_32 -->
<g id="edge17" class="edge"><title>node_27&#45;&gt;node_32</title>
<path fill="none" stroke="black" d="M1267.22,-97.0464C1300.84,-98.3357 1348.96,-100.181 1385.16,-101.569"/>
<polygon fill="black" stroke="black" points="1385.38,-105.08 1395.5,-101.966 1385.64,-98.0854 1385.38,-105.08"/>
</g>
<!-- order_node_12 -->
<!-- order_node_11&#45;&gt;order_node_12 -->
</g>
</svg>
