<?xml version="1.0" encoding="UTF-8" standalone="no"?>
<!DOCTYPE svg PUBLIC "-//W3C//DTD SVG 1.1//EN"
 "http://www.w3.org/Graphics/SVG/1.1/DTD/svg11.dtd">
<!-- Generated by graphviz version 2.38.0 (20140413.2041)
 -->
<!-- Title: timeline Pages: 1 -->
<svg width="1502pt" height="508pt"
 viewBox="0.00 0.00 1501.60 508.00" xmlns="http://www.w3.org/2000/svg" xmlns:xlink="http://www.w3.org/1999/xlink">
<g id="graph0" class="graph" transform="scale(1 1) rotate(0) translate(4 504)">
<title>timeline</title>
<polygon fill="white" stroke="none" points="-4,4 -4,-504 1497.6,-504 1497.6,4 -4,4"/>
<g id="clust1" class="cluster"><title>cluster_0</title>
<polygon fill="none" stroke="black" points="8,-199 8,-298 95,-298 95,-199 8,-199"/>
<text text-anchor="middle" x="51.5" y="-282.8" font-family="Times New Roman,serif" font-size="14.00">January</text>
</g>
<g id="clust2" class="cluster"><title>cluster_1</title>
<polygon fill="none" stroke="black" points="115,-199 115,-298 213,-298 213,-199 115,-199"/>
<text text-anchor="middle" x="164" y="-282.8" font-family="Times New Roman,serif" font-size="14.00">February</text>
</g>
<g id="clust3" class="cluster"><title>cluster_2</title>
<polygon fill="none" stroke="black" points="233,-258 233,-413 331,-413 331,-258 233,-258"/>
<text text-anchor="middle" x="282" y="-397.8" font-family="Times New Roman,serif" font-size="14.00">March</text>
</g>
<g id="clust4" class="cluster"><title>cluster_3</title>
<polygon fill="none" stroke="black" points="351,-8 351,-291 449,-291 449,-8 351,-8"/>
<text text-anchor="middle" x="400" y="-275.8" font-family="Times New Roman,serif" font-size="14.00">April</text>
</g>
<g id="clust5" class="cluster"><title>cluster_4</title>
<polygon fill="none" stroke="black" points="469,-312 469,-482 567,-482 567,-312 469,-312"/>
<text text-anchor="middle" x="518" y="-466.8" font-family="Times New Roman,serif" font-size="14.00">May</text>
</g>
<g id="clust6" class="cluster"><title>cluster_5</title>
<polygon fill="none" stroke="black" points="587,-24 587,-291 685,-291 685,-24 587,-24"/>
<text text-anchor="middle" x="636" y="-275.8" font-family="Times New Roman,serif" font-size="14.00">June</text>
</g>
<g id="clust7" class="cluster"><title>cluster_6</title>
<polygon fill="none" stroke="black" points="705,-248 705,-418 803,-418 803,-248 705,-248"/>
<text text-anchor="middle" x="754" y="-402.8" font-family="Times New Roman,serif" font-size="14.00">July</text>
</g>
<g id="clust8" class="cluster"><title>cluster_7</title>
<polygon fill="none" stroke="black" points="823,-251 823,-350 921,-350 921,-251 823,-251"/>
<text text-anchor="middle" x="872" y="-334.8" font-family="Times New Roman,serif" font-size="14.00">August</text>
</g>
<g id="clust9" class="cluster"><title>cluster_8</title>
<polygon fill="none" stroke="black" points="941,-180 941,-492 1039,-492 1039,-180 941,-180"/>
<text text-anchor="middle" x="990" y="-476.8" font-family="Times New Roman,serif" font-size="14.00">September</text>
</g>
<g id="clust10" class="cluster"><title>cluster_9</title>
<polygon fill="none" stroke="black" points="1059,-86 1059,-241 1157,-241 1157,-86 1059,-86"/>
<text text-anchor="middle" x="1108" y="-225.8" font-family="Times New Roman,serif" font-size="14.00">October</text>
</g>
<g id="clust11" class="cluster"><title>cluster_10</title>
<polygon fill="none" stroke="black" points="1177,-18 1177,-428 1275,-428 1275,-18 1177,-18"/>
<text text-anchor="middle" x="1226" y="-412.8" font-family="Times New Roman,serif" font-size="14.00">November</text>
</g>
<g id="clust12" class="cluster"><title>cluster_11</title>
<polygon fill="none" stroke="black" points="1295,-143 1295,-186 1368.6,-186 1368.6,-143 1295,-143"/>
<text text-anchor="middle" x="1331.8" y="-170.8" font-family="Times New Roman,serif" font-size="14.00">December</text>
</g>
<g id="clust13" class="cluster"><title>cluster_12</title>
<polygon fill="none" stroke="black" points="1387.6,-97 1387.6,-364 1485.6,-364 1485.6,-97 1387.6,-97"/>
<text text-anchor="middle" x="1436.6" y="-348.8" font-family="Times New Roman,serif" font-size="14.00">January</text>
</g>
<!-- order_node_0 -->
<!-- order_node_1 -->
<!-- order_node_0&#45;&gt;order_node_1 -->
<!-- node_0 -->
<g id="node2" class="node"><title>node_0</title>
<g id="a_node2"><a xlink:href="http://www.ijcai.org/" xlink:title="International Joint Conference on Artificial Intelligence" target="_blank">
<polygon fill="none" stroke="black" points="87,-245 16,-245 16,-207 87,-207 87,-245"/>
<text text-anchor="middle" x="51.5" y="-229.8" font-family="Times New Roman,serif" font-size="14.00">IJCAI</text>
<text text-anchor="middle" x="51.5" y="-214.8" font-family="Times New Roman,serif" font-size="14.00">Abstracts</text>
</a>
</g>
</g>
<!-- node_1 -->
<g id="node4" class="node"><title>node_1</title>
<g id="a_node4"><a xlink:href="http://www.ijcai.org/" xlink:title="International Joint Conference on Artificial Intelligence" target="_blank">
<polygon fill="none" stroke="black" points="205,-245 123,-245 123,-207 205,-207 205,-245"/>
<text text-anchor="middle" x="164" y="-229.8" font-family="Times New Roman,serif" font-size="14.00">IJCAI</text>
<text text-anchor="middle" x="164" y="-214.8" font-family="Times New Roman,serif" font-size="14.00">Submission</text>
</a>
</g>
</g>
<!-- node_0&#45;&gt;node_1 -->
<g id="edge1" class="edge"><title>node_0&#45;&gt;node_1</title>
<path fill="none" stroke="black" d="M87.1597,-226C95.2573,-226 104.043,-226 112.668,-226"/>
<polygon fill="black" stroke="black" points="112.669,-229.5 122.668,-226 112.668,-222.5 112.669,-229.5"/>
</g>
<!-- order_node_2 -->
<!-- order_node_1&#45;&gt;order_node_2 -->
<!-- node_4 -->
<g id="node9" class="node"><title>node_4</title>
<g id="a_node9"><a xlink:href="http://www.ijcai.org/" xlink:title="International Joint Conference on Artificial Intelligence" target="_blank">
<polygon fill="none" stroke="black" points="441,-238 359,-238 359,-200 441,-200 441,-238"/>
<text text-anchor="middle" x="400" y="-222.8" font-family="Times New Roman,serif" font-size="14.00">IJCAI</text>
<text text-anchor="middle" x="400" y="-207.8" font-family="Times New Roman,serif" font-size="14.00">Notification</text>
</a>
</g>
</g>
<!-- node_1&#45;&gt;node_4 -->
<g id="edge2" class="edge"><title>node_1&#45;&gt;node_4</title>
<path fill="none" stroke="black" d="M205.226,-224.797C244.942,-223.609 305.791,-221.788 348.686,-220.505"/>
<polygon fill="black" stroke="black" points="349.017,-223.997 358.908,-220.199 348.808,-217 349.017,-223.997"/>
</g>
<!-- order_node_3 -->
<!-- order_node_2&#45;&gt;order_node_3 -->
<!-- node_2 -->
<g id="node6" class="node"><title>node_2</title>
<g id="a_node6"><a xlink:href="http://auai.org/" xlink:title="Conference on Uncertainty in Artificial Intelligence" target="_blank">
<polygon fill="none" stroke="black" points="323,-382 241,-382 241,-344 323,-344 323,-382"/>
<text text-anchor="middle" x="282" y="-366.8" font-family="Times New Roman,serif" font-size="14.00">UAI</text>
<text text-anchor="middle" x="282" y="-351.8" font-family="Times New Roman,serif" font-size="14.00">Submission</text>
</a>
</g>
</g>
<!-- node_9 -->
<g id="node15" class="node"><title>node_9</title>
<g id="a_node15"><a xlink:href="http://auai.org/" xlink:title="Conference on Uncertainty in Artificial Intelligence" target="_blank">
<polygon fill="none" stroke="black" points="559,-451 477,-451 477,-413 559,-413 559,-451"/>
<text text-anchor="middle" x="518" y="-435.8" font-family="Times New Roman,serif" font-size="14.00">UAI</text>
<text text-anchor="middle" x="518" y="-420.8" font-family="Times New Roman,serif" font-size="14.00">Notification</text>
</a>
</g>
</g>
<!-- node_2&#45;&gt;node_9 -->
<g id="edge3" class="edge"><title>node_2&#45;&gt;node_9</title>
<path fill="none" stroke="black" d="M323.226,-374.862C363.11,-386.622 424.306,-404.667 467.229,-417.324"/>
<polygon fill="black" stroke="black" points="466.326,-420.707 476.908,-420.178 468.306,-413.993 466.326,-420.707"/>
</g>
<!-- node_3 -->
<g id="node7" class="node"><title>node_3</title>
<g id="a_node7"><a xlink:href="http://www.iros.org/" xlink:title="International Conference on Intelligent Robots and Systems" target="_blank">
<polygon fill="none" stroke="black" points="323,-326 241,-326 241,-288 323,-288 323,-326"/>
<text text-anchor="middle" x="282" y="-310.8" font-family="Times New Roman,serif" font-size="14.00">IROS</text>
<text text-anchor="middle" x="282" y="-295.8" font-family="Times New Roman,serif" font-size="14.00">Submission</text>
</a>
</g>
</g>
<!-- node_12 -->
<g id="node19" class="node"><title>node_12</title>
<g id="a_node19"><a xlink:href="http://www.iros.org/" xlink:title="International Conference on Intelligent Robots and Systems" target="_blank">
<polygon fill="none" stroke="black" points="677,-238 595,-238 595,-200 677,-200 677,-238"/>
<text text-anchor="middle" x="636" y="-222.8" font-family="Times New Roman,serif" font-size="14.00">IROS</text>
<text text-anchor="middle" x="636" y="-207.8" font-family="Times New Roman,serif" font-size="14.00">Notification</text>
</a>
</g>
</g>
<!-- node_3&#45;&gt;node_12 -->
<g id="edge4" class="edge"><title>node_3&#45;&gt;node_12</title>
<path fill="none" stroke="black" d="M323.107,-307.615C357.061,-307.304 406.8,-304.882 449,-295 498.784,-283.342 552.536,-260.118 589.391,-242.395"/>
<polygon fill="black" stroke="black" points="590.924,-245.542 598.384,-238.018 587.861,-239.247 590.924,-245.542"/>
</g>
<!-- order_node_4 -->
<!-- order_node_3&#45;&gt;order_node_4 -->
<!-- node_5 -->
<g id="node10" class="node"><title>node_5</title>
<g id="a_node10"><a xlink:href="http://www.ecai2016.org/" xlink:title="European Conference on Artificial Intelligence" target="_blank">
<polygon fill="none" stroke="black" points="441,-182 359,-182 359,-144 441,-144 441,-182"/>
<text text-anchor="middle" x="400" y="-166.8" font-family="Times New Roman,serif" font-size="14.00">ECAI</text>
<text text-anchor="middle" x="400" y="-151.8" font-family="Times New Roman,serif" font-size="14.00">Submission</text>
</a>
</g>
</g>
<!-- node_10 -->
<g id="node17" class="node"><title>node_10</title>
<g id="a_node17"><a xlink:href="http://www.ecai2016.org/" xlink:title="European Conference on Artificial Intelligence" target="_blank">
<polygon fill="none" stroke="black" points="677,-182 595,-182 595,-144 677,-144 677,-182"/>
<text text-anchor="middle" x="636" y="-166.8" font-family="Times New Roman,serif" font-size="14.00">ECAI</text>
<text text-anchor="middle" x="636" y="-151.8" font-family="Times New Roman,serif" font-size="14.00">Notification</text>
</a>
</g>
</g>
<!-- node_5&#45;&gt;node_10 -->
<g id="edge5" class="edge"><title>node_5&#45;&gt;node_10</title>
<path fill="none" stroke="black" d="M441.226,-163C480.942,-163 541.791,-163 584.686,-163"/>
<polygon fill="black" stroke="black" points="584.908,-166.5 594.908,-163 584.908,-159.5 584.908,-166.5"/>
</g>
<!-- node_6 -->
<g id="node11" class="node"><title>node_6</title>
<g id="a_node11"><a xlink:href="http://wibih.unomaha.edu/wi" xlink:title="International Conference on Intelligent Agent Technology" target="_blank">
<polygon fill="none" stroke="black" points="441,-126 359,-126 359,-88 441,-88 441,-126"/>
<text text-anchor="middle" x="400" y="-110.8" font-family="Times New Roman,serif" font-size="14.00">IAT</text>
<text text-anchor="middle" x="400" y="-95.8" font-family="Times New Roman,serif" font-size="14.00">Submission</text>
</a>
</g>
</g>
<!-- node_11 -->
<g id="node18" class="node"><title>node_11</title>
<g id="a_node18"><a xlink:href="http://wibih.unomaha.edu/wi" xlink:title="International Conference on Intelligent Agent Technology" target="_blank">
<polygon fill="none" stroke="black" points="677,-126 595,-126 595,-88 677,-88 677,-126"/>
<text text-anchor="middle" x="636" y="-110.8" font-family="Times New Roman,serif" font-size="14.00">IAT</text>
<text text-anchor="middle" x="636" y="-95.8" font-family="Times New Roman,serif" font-size="14.00">Notification</text>
</a>
</g>
</g>
<!-- node_6&#45;&gt;node_11 -->
<g id="edge6" class="edge"><title>node_6&#45;&gt;node_11</title>
<path fill="none" stroke="black" d="M441.226,-107C480.942,-107 541.791,-107 584.686,-107"/>
<polygon fill="black" stroke="black" points="584.908,-110.5 594.908,-107 584.908,-103.5 584.908,-110.5"/>
</g>
<!-- node_7 -->
<g id="node12" class="node"><title>node_7</title>
<g id="a_node12"><a xlink:href="http://software.imdea.org/Conferences/ICLP2016/" xlink:title="International Conference on Logic Programming" target="_blank">
<polygon fill="none" stroke="black" points="441,-69.5 359,-69.5 359,-16.5 441,-16.5 441,-69.5"/>
<text text-anchor="middle" x="400" y="-54.3" font-family="Times New Roman,serif" font-size="14.00">ICLP</text>
<text text-anchor="middle" x="400" y="-39.3" font-family="Times New Roman,serif" font-size="14.00">Abstracts</text>
<text text-anchor="middle" x="400" y="-24.3" font-family="Times New Roman,serif" font-size="14.00">Submission</text>
</a>
</g>
</g>
<!-- node_13 -->
<g id="node20" class="node"><title>node_13</title>
<g id="a_node20"><a xlink:href="http://software.imdea.org/Conferences/ICLP2016/" xlink:title="International Conference on Logic Programming" target="_blank">
<polygon fill="none" stroke="black" points="677,-70 595,-70 595,-32 677,-32 677,-70"/>
<text text-anchor="middle" x="636" y="-54.8" font-family="Times New Roman,serif" font-size="14.00">ICLP</text>
<text text-anchor="middle" x="636" y="-39.8" font-family="Times New Roman,serif" font-size="14.00">Notification</text>
</a>
</g>
</g>
<!-- node_7&#45;&gt;node_13 -->
<g id="edge7" class="edge"><title>node_7&#45;&gt;node_13</title>
<path fill="none" stroke="black" d="M441.226,-44.3752C480.942,-45.7331 541.791,-47.8134 584.686,-49.2799"/>
<polygon fill="black" stroke="black" points="584.794,-52.7855 594.908,-49.6293 585.033,-45.7896 584.794,-52.7855"/>
</g>
<!-- order_node_5 -->
<!-- order_node_4&#45;&gt;order_node_5 -->
<!-- node_8 -->
<g id="node14" class="node"><title>node_8</title>
<g id="a_node14"><a xlink:href="http://www.kr.org/" xlink:title="International Conference on Principles of Knowledge Representation and Reasoning" target="_blank">
<polygon fill="none" stroke="black" points="559,-394.5 477,-394.5 477,-341.5 559,-341.5 559,-394.5"/>
<text text-anchor="middle" x="518" y="-379.3" font-family="Times New Roman,serif" font-size="14.00">KR</text>
<text text-anchor="middle" x="518" y="-364.3" font-family="Times New Roman,serif" font-size="14.00">Abstracts</text>
<text text-anchor="middle" x="518" y="-349.3" font-family="Times New Roman,serif" font-size="14.00">Submission</text>
</a>
</g>
</g>
<!-- node_15 -->
<g id="node23" class="node"><title>node_15</title>
<g id="a_node23"><a xlink:href="http://www.kr.org/" xlink:title="International Conference on Principles of Knowledge Representation and Reasoning" target="_blank">
<polygon fill="none" stroke="black" points="795,-387 713,-387 713,-349 795,-349 795,-387"/>
<text text-anchor="middle" x="754" y="-371.8" font-family="Times New Roman,serif" font-size="14.00">KR</text>
<text text-anchor="middle" x="754" y="-356.8" font-family="Times New Roman,serif" font-size="14.00">Notification</text>
</a>
</g>
</g>
<!-- node_8&#45;&gt;node_15 -->
<g id="edge8" class="edge"><title>node_8&#45;&gt;node_15</title>
<path fill="none" stroke="black" d="M559.226,-368C598.942,-368 659.791,-368 702.686,-368"/>
<polygon fill="black" stroke="black" points="702.908,-371.5 712.908,-368 702.908,-364.5 702.908,-371.5"/>
</g>
<!-- order_node_6 -->
<!-- order_node_5&#45;&gt;order_node_6 -->
<!-- order_node_7 -->
<!-- order_node_6&#45;&gt;order_node_7 -->
<!-- node_14 -->
<g id="node22" class="node"><title>node_14</title>
<g id="a_node22"><a xlink:href="http://sbgames.org/" xlink:title="Simposio Brasileiro de Games e Entretenimento Digital" target="_blank">
<polygon fill="none" stroke="black" points="795,-330.5 713,-330.5 713,-277.5 795,-277.5 795,-330.5"/>
<text text-anchor="middle" x="754" y="-315.3" font-family="Times New Roman,serif" font-size="14.00">SBGames</text>
<text text-anchor="middle" x="754" y="-300.3" font-family="Times New Roman,serif" font-size="14.00">Abstracts</text>
<text text-anchor="middle" x="754" y="-285.3" font-family="Times New Roman,serif" font-size="14.00">Submission</text>
</a>
</g>
</g>
<!-- node_16 -->
<g id="node25" class="node"><title>node_16</title>
<g id="a_node25"><a xlink:href="http://sbgames.org/" xlink:title="Simposio Brasileiro de Games e Entretenimento Digital" target="_blank">
<polygon fill="none" stroke="black" points="913,-319 831,-319 831,-281 913,-281 913,-319"/>
<text text-anchor="middle" x="872" y="-303.8" font-family="Times New Roman,serif" font-size="14.00">SBGames</text>
<text text-anchor="middle" x="872" y="-288.8" font-family="Times New Roman,serif" font-size="14.00">Notification</text>
</a>
</g>
</g>
<!-- node_14&#45;&gt;node_16 -->
<g id="edge9" class="edge"><title>node_14&#45;&gt;node_16</title>
<path fill="none" stroke="black" d="M795.246,-302.612C803.433,-302.33 812.144,-302.03 820.632,-301.737"/>
<polygon fill="black" stroke="black" points="820.952,-305.228 830.826,-301.385 820.711,-298.232 820.952,-305.228"/>
</g>
<!-- order_node_8 -->
<!-- order_node_7&#45;&gt;order_node_8 -->
<!-- order_node_9 -->
<!-- order_node_8&#45;&gt;order_node_9 -->
<!-- node_17 -->
<g id="node27" class="node"><title>node_17</title>
<g id="a_node27"><a xlink:href="http://www.icra2017.org/" xlink:title="International Conference on Robotics and Automation" target="_blank">
<polygon fill="none" stroke="black" points="1031,-461 949,-461 949,-423 1031,-423 1031,-461"/>
<text text-anchor="middle" x="990" y="-445.8" font-family="Times New Roman,serif" font-size="14.00">ICRA</text>
<text text-anchor="middle" x="990" y="-430.8" font-family="Times New Roman,serif" font-size="14.00">Submission</text>
</a>
</g>
</g>
<!-- node_29 -->
<g id="node43" class="node"><title>node_29</title>
<g id="a_node43"><a xlink:href="http://www.icra2017.org/" xlink:title="International Conference on Robotics and Automation" target="_blank">
<polygon fill="none" stroke="black" points="1477.6,-333 1395.6,-333 1395.6,-295 1477.6,-295 1477.6,-333"/>
<text text-anchor="middle" x="1436.6" y="-317.8" font-family="Times New Roman,serif" font-size="14.00">ICRA</text>
<text text-anchor="middle" x="1436.6" y="-302.8" font-family="Times New Roman,serif" font-size="14.00">Notification</text>
</a>
</g>
</g>
<!-- node_17&#45;&gt;node_29 -->
<g id="edge10" class="edge"><title>node_17&#45;&gt;node_29</title>
<path fill="none" stroke="black" d="M1031.4,-447.864C1087.74,-454.436 1192.28,-460.744 1275,-432 1329.3,-413.131 1380.77,-369.048 1410.21,-340.43"/>
<polygon fill="black" stroke="black" points="1412.91,-342.678 1417.56,-333.157 1407.99,-337.702 1412.91,-342.678"/>
</g>
<!-- node_18 -->
<g id="node28" class="node"><title>node_18</title>
<g id="a_node28"><a xlink:href="http://www.sigapp.org/sac/" xlink:title="Symposium On Applied Computing" target="_blank">
<polygon fill="none" stroke="black" points="1031,-404.5 949,-404.5 949,-351.5 1031,-351.5 1031,-404.5"/>
<text text-anchor="middle" x="990" y="-389.3" font-family="Times New Roman,serif" font-size="14.00">SAC</text>
<text text-anchor="middle" x="990" y="-374.3" font-family="Times New Roman,serif" font-size="14.00">Abstracts</text>
<text text-anchor="middle" x="990" y="-359.3" font-family="Times New Roman,serif" font-size="14.00">Submission</text>
</a>
</g>
</g>
<!-- node_24 -->
<g id="node36" class="node"><title>node_24</title>
<g id="a_node36"><a xlink:href="http://www.sigapp.org/sac/" xlink:title="Symposium On Applied Computing" target="_blank">
<polygon fill="none" stroke="black" points="1267,-397 1185,-397 1185,-359 1267,-359 1267,-397"/>
<text text-anchor="middle" x="1226" y="-381.8" font-family="Times New Roman,serif" font-size="14.00">SAC</text>
<text text-anchor="middle" x="1226" y="-366.8" font-family="Times New Roman,serif" font-size="14.00">Notification</text>
</a>
</g>
</g>
<!-- node_18&#45;&gt;node_24 -->
<g id="edge11" class="edge"><title>node_18&#45;&gt;node_24</title>
<path fill="none" stroke="black" d="M1031.23,-378C1070.94,-378 1131.79,-378 1174.69,-378"/>
<polygon fill="black" stroke="black" points="1174.91,-381.5 1184.91,-378 1174.91,-374.5 1174.91,-381.5"/>
</g>
<!-- node_19 -->
<g id="node29" class="node"><title>node_19</title>
<g id="a_node29"><a xlink:href="http://www.aaai.org/Conferences/conferences.php" xlink:title="Association for the Advancement of Artificial Intelligence" target="_blank">
<polygon fill="none" stroke="black" points="1031,-333.5 949,-333.5 949,-280.5 1031,-280.5 1031,-333.5"/>
<text text-anchor="middle" x="990" y="-318.3" font-family="Times New Roman,serif" font-size="14.00">AAAI</text>
<text text-anchor="middle" x="990" y="-303.3" font-family="Times New Roman,serif" font-size="14.00">Abstracts</text>
<text text-anchor="middle" x="990" y="-288.3" font-family="Times New Roman,serif" font-size="14.00">Submission</text>
</a>
</g>
</g>
<!-- node_23 -->
<g id="node35" class="node"><title>node_23</title>
<g id="a_node35"><a xlink:href="http://www.aaai.org/Conferences/conferences.php" xlink:title="Association for the Advancement of Artificial Intelligence" target="_blank">
<polygon fill="none" stroke="black" points="1267,-341 1185,-341 1185,-303 1267,-303 1267,-341"/>
<text text-anchor="middle" x="1226" y="-325.8" font-family="Times New Roman,serif" font-size="14.00">AAAI</text>
<text text-anchor="middle" x="1226" y="-310.8" font-family="Times New Roman,serif" font-size="14.00">Notification</text>
</a>
</g>
</g>
<!-- node_19&#45;&gt;node_23 -->
<g id="edge12" class="edge"><title>node_19&#45;&gt;node_23</title>
<path fill="none" stroke="black" d="M1031.23,-309.579C1070.94,-312.125 1131.79,-316.025 1174.69,-318.775"/>
<polygon fill="black" stroke="black" points="1174.7,-322.283 1184.91,-319.43 1175.15,-315.297 1174.7,-322.283"/>
</g>
<!-- node_20 -->
<g id="node30" class="node"><title>node_20</title>
<g id="a_node30"><a xlink:href="https://eumas2017.ibisc.univ-evry.fr/" xlink:title="European Conference on Multi&#45;Agent Systems" target="_blank">
<polygon fill="none" stroke="black" points="1031,-241.5 949,-241.5 949,-188.5 1031,-188.5 1031,-241.5"/>
<text text-anchor="middle" x="990" y="-226.3" font-family="Times New Roman,serif" font-size="14.00">EUMAS</text>
<text text-anchor="middle" x="990" y="-211.3" font-family="Times New Roman,serif" font-size="14.00">Abstracts</text>
<text text-anchor="middle" x="990" y="-196.3" font-family="Times New Roman,serif" font-size="14.00">Submission</text>
</a>
</g>
</g>
<!-- node_21 -->
<g id="node32" class="node"><title>node_21</title>
<g id="a_node32"><a xlink:href="https://eumas2017.ibisc.univ-evry.fr/" xlink:title="European Conference on Multi&#45;Agent Systems" target="_blank">
<polygon fill="none" stroke="black" points="1149,-132 1067,-132 1067,-94 1149,-94 1149,-132"/>
<text text-anchor="middle" x="1108" y="-116.8" font-family="Times New Roman,serif" font-size="14.00">EUMAS</text>
<text text-anchor="middle" x="1108" y="-101.8" font-family="Times New Roman,serif" font-size="14.00">Notification</text>
</a>
</g>
</g>
<!-- node_20&#45;&gt;node_21 -->
<g id="edge13" class="edge"><title>node_20&#45;&gt;node_21</title>
<path fill="none" stroke="black" d="M1012.25,-188.152C1024.87,-173.217 1041.74,-154.896 1059,-141 1060.34,-139.919 1061.73,-138.852 1063.16,-137.802"/>
<polygon fill="black" stroke="black" points="1065.32,-140.56 1071.58,-132.01 1061.36,-134.791 1065.32,-140.56"/>
</g>
<!-- order_node_10 -->
<!-- order_node_9&#45;&gt;order_node_10 -->
<!-- node_22 -->
<g id="node33" class="node"><title>node_22</title>
<g id="a_node33"><a xlink:href="http://www.icaart.org/" xlink:title="International Conference on Agents and Artificial Intelligence" target="_blank">
<polygon fill="none" stroke="black" points="1149,-188 1067,-188 1067,-150 1149,-150 1149,-188"/>
<text text-anchor="middle" x="1108" y="-172.8" font-family="Times New Roman,serif" font-size="14.00">ICAART</text>
<text text-anchor="middle" x="1108" y="-157.8" font-family="Times New Roman,serif" font-size="14.00">Submission</text>
</a>
</g>
</g>
<!-- node_28 -->
<g id="node40" class="node"><title>node_28</title>
<g id="a_node40"><a xlink:href="http://www.icaart.org/" xlink:title="International Conference on Agents and Artificial Intelligence" target="_blank">
<polygon fill="none" stroke="black" points="1267,-64 1185,-64 1185,-26 1267,-26 1267,-64"/>
<text text-anchor="middle" x="1226" y="-48.8" font-family="Times New Roman,serif" font-size="14.00">ICAART</text>
<text text-anchor="middle" x="1226" y="-33.8" font-family="Times New Roman,serif" font-size="14.00">Notification</text>
</a>
</g>
</g>
<!-- node_22&#45;&gt;node_28 -->
<g id="edge14" class="edge"><title>node_22&#45;&gt;node_28</title>
<path fill="none" stroke="black" d="M1148.31,-149.701C1151.53,-147.087 1154.5,-144.19 1157,-141 1176.42,-116.198 1157.58,-97.8016 1177,-73 1177.47,-72.4019 1177.95,-71.814 1178.45,-71.2364"/>
<polygon fill="black" stroke="black" points="1180.89,-73.7459 1185.69,-64.2987 1176.05,-68.6931 1180.89,-73.7459"/>
</g>
<!-- order_node_11 -->
<!-- order_node_10&#45;&gt;order_node_11 -->
<!-- node_25 -->
<g id="node37" class="node"><title>node_25</title>
<g id="a_node37"><a xlink:href="http://www.icaps-conference.org/" xlink:title="International Conference on Automated Planning and Scheduling" target="_blank">
<polygon fill="none" stroke="black" points="1267,-135.5 1185,-135.5 1185,-82.5 1267,-82.5 1267,-135.5"/>
<text text-anchor="middle" x="1226" y="-120.3" font-family="Times New Roman,serif" font-size="14.00">ICAPS</text>
<text text-anchor="middle" x="1226" y="-105.3" font-family="Times New Roman,serif" font-size="14.00">Abstracts</text>
<text text-anchor="middle" x="1226" y="-90.3" font-family="Times New Roman,serif" font-size="14.00">Submission</text>
</a>
</g>
</g>
<!-- node_30 -->
<g id="node44" class="node"><title>node_30</title>
<g id="a_node44"><a xlink:href="http://www.icaps-conference.org/" xlink:title="International Conference on Automated Planning and Scheduling" target="_blank">
<polygon fill="none" stroke="black" points="1477.6,-143 1395.6,-143 1395.6,-105 1477.6,-105 1477.6,-143"/>
<text text-anchor="middle" x="1436.6" y="-127.8" font-family="Times New Roman,serif" font-size="14.00">ICAPS</text>
<text text-anchor="middle" x="1436.6" y="-112.8" font-family="Times New Roman,serif" font-size="14.00">Notification</text>
</a>
</g>
</g>
<!-- node_25&#45;&gt;node_30 -->
<g id="edge15" class="edge"><title>node_25&#45;&gt;node_30</title>
<path fill="none" stroke="black" d="M1267.22,-111.892C1300.84,-114.31 1348.96,-117.77 1385.16,-120.373"/>
<polygon fill="black" stroke="black" points="1385.28,-123.89 1395.5,-121.117 1385.78,-116.908 1385.28,-123.89"/>
</g>
<!-- node_26 -->
<g id="node38" class="node"><title>node_26</title>
<g id="a_node38"><a xlink:href="http://www.ifaamas.org/" xlink:title="International Conference on Autonomous Agents and Multiagent Systems" target="_blank">
<polygon fill="none" stroke="black" points="1267,-284.5 1185,-284.5 1185,-231.5 1267,-231.5 1267,-284.5"/>
<text text-anchor="middle" x="1226" y="-269.3" font-family="Times New Roman,serif" font-size="14.00">AAMAS</text>
<text text-anchor="middle" x="1226" y="-254.3" font-family="Times New Roman,serif" font-size="14.00">Abstracts</text>
<text text-anchor="middle" x="1226" y="-239.3" font-family="Times New Roman,serif" font-size="14.00">Submission</text>
</a>
</g>
</g>
<!-- node_31 -->
<g id="node45" class="node"><title>node_31</title>
<g id="a_node45"><a xlink:href="http://www.ifaamas.org/" xlink:title="International Conference on Autonomous Agents and Multiagent Systems" target="_blank">
<polygon fill="none" stroke="black" points="1477.6,-277 1395.6,-277 1395.6,-239 1477.6,-239 1477.6,-277"/>
<text text-anchor="middle" x="1436.6" y="-261.8" font-family="Times New Roman,serif" font-size="14.00">AAMAS</text>
<text text-anchor="middle" x="1436.6" y="-246.8" font-family="Times New Roman,serif" font-size="14.00">Notification</text>
</a>
</g>
</g>
<!-- node_26&#45;&gt;node_31 -->
<g id="edge16" class="edge"><title>node_26&#45;&gt;node_31</title>
<path fill="none" stroke="black" d="M1267.22,-258C1300.84,-258 1348.96,-258 1385.16,-258"/>
<polygon fill="black" stroke="black" points="1385.5,-261.5 1395.5,-258 1385.5,-254.5 1385.5,-261.5"/>
</g>
<!-- node_27 -->
<g id="node39" class="node"><title>node_27</title>
<g id="a_node39"><a xlink:href="http://www.flairs.com/" xlink:title="Florida Artificial Intelligence Research Society" target="_blank">
<polygon fill="none" stroke="black" points="1267,-213 1185,-213 1185,-175 1267,-175 1267,-213"/>
<text text-anchor="middle" x="1226" y="-197.8" font-family="Times New Roman,serif" font-size="14.00">FLAIRS</text>
<text text-anchor="middle" x="1226" y="-182.8" font-family="Times New Roman,serif" font-size="14.00">Submission</text>
</a>
</g>
</g>
<!-- node_32 -->
<g id="node46" class="node"><title>node_32</title>
<g id="a_node46"><a xlink:href="http://www.flairs.com/" xlink:title="Florida Artificial Intelligence Research Society" target="_blank">
<polygon fill="none" stroke="black" points="1477.6,-221 1395.6,-221 1395.6,-183 1477.6,-183 1477.6,-221"/>
<text text-anchor="middle" x="1436.6" y="-205.8" font-family="Times New Roman,serif" font-size="14.00">FLAIRS</text>
<text text-anchor="middle" x="1436.6" y="-190.8" font-family="Times New Roman,serif" font-size="14.00">Notification</text>
</a>
</g>
</g>
<!-- node_27&#45;&gt;node_32 -->
<g id="edge17" class="edge"><title>node_27&#45;&gt;node_32</title>
<path fill="none" stroke="black" d="M1267.22,-195.542C1300.84,-196.832 1348.96,-198.677 1385.16,-200.066"/>
<polygon fill="black" stroke="black" points="1385.38,-203.576 1395.5,-200.462 1385.64,-196.582 1385.38,-203.576"/>
</g>
<!-- order_node_12 -->
<!-- order_node_11&#45;&gt;order_node_12 -->
</g>
</svg>
