<?xml version="1.0" encoding="UTF-8" standalone="no"?>
<!DOCTYPE svg PUBLIC "-//W3C//DTD SVG 1.1//EN"
 "http://www.w3.org/Graphics/SVG/1.1/DTD/svg11.dtd">
<!-- Generated by graphviz version 2.38.0 (20140413.2041)
 -->
<!-- Title: conferences Pages: 1 -->
<svg width="1502pt" height="507pt"
 viewBox="0.00 0.00 1501.60 507.37" xmlns="http://www.w3.org/2000/svg" xmlns:xlink="http://www.w3.org/1999/xlink">
<g id="graph0" class="graph" transform="scale(1 1) rotate(0) translate(4 503.366)">
<title>conferences</title>
<polygon fill="white" stroke="none" points="-4,4 -4,-503.366 1497.6,-503.366 1497.6,4 -4,4"/>
<g id="clust1" class="cluster"><title>cluster_0</title>
<polygon fill="none" stroke="black" points="8,-259.366 8,-358.366 95,-358.366 95,-259.366 8,-259.366"/>
<text text-anchor="middle" x="51.5" y="-343.166" font-family="Times New Roman,serif" font-size="14.00">January</text>
</g>
<g id="clust2" class="cluster"><title>cluster_1</title>
<polygon fill="none" stroke="black" points="115,-259.366 115,-358.366 213,-358.366 213,-259.366 115,-259.366"/>
<text text-anchor="middle" x="164" y="-343.166" font-family="Times New Roman,serif" font-size="14.00">February</text>
</g>
<g id="clust3" class="cluster"><title>cluster_2</title>
<polygon fill="none" stroke="black" points="233,-141.366 233,-296.366 331,-296.366 331,-141.366 233,-141.366"/>
<text text-anchor="middle" x="282" y="-281.166" font-family="Times New Roman,serif" font-size="14.00">March</text>
</g>
<g id="clust4" class="cluster"><title>cluster_3</title>
<polygon fill="none" stroke="black" points="351,-193.366 351,-476.366 449,-476.366 449,-193.366 351,-193.366"/>
<text text-anchor="middle" x="400" y="-461.166" font-family="Times New Roman,serif" font-size="14.00">April</text>
</g>
<g id="clust5" class="cluster"><title>cluster_4</title>
<polygon fill="none" stroke="black" points="469,-377.366 469,-491.366 567,-491.366 567,-377.366 469,-377.366"/>
<text text-anchor="middle" x="518" y="-476.166" font-family="Times New Roman,serif" font-size="14.00">May</text>
</g>
<g id="clust6" class="cluster"><title>cluster_5</title>
<polygon fill="none" stroke="black" points="587,-97.366 587,-420.366 685,-420.366 685,-97.366 587,-97.366"/>
<text text-anchor="middle" x="636" y="-405.166" font-family="Times New Roman,serif" font-size="14.00">June</text>
</g>
<g id="clust7" class="cluster"><title>cluster_6</title>
<polygon fill="none" stroke="black" points="705,-320.366 705,-490.366 803,-490.366 803,-320.366 705,-320.366"/>
<text text-anchor="middle" x="754" y="-475.166" font-family="Times New Roman,serif" font-size="14.00">July</text>
</g>
<g id="clust8" class="cluster"><title>cluster_7</title>
<polygon fill="none" stroke="black" points="823,-323.366 823,-422.366 921,-422.366 921,-323.366 823,-323.366"/>
<text text-anchor="middle" x="872" y="-407.166" font-family="Times New Roman,serif" font-size="14.00">August</text>
</g>
<g id="clust9" class="cluster"><title>cluster_8</title>
<polygon fill="none" stroke="black" points="941,-125.366 941,-422.366 1039,-422.366 1039,-125.366 941,-125.366"/>
<text text-anchor="middle" x="990" y="-407.166" font-family="Times New Roman,serif" font-size="14.00">September</text>
</g>
<g id="clust10" class="cluster"><title>cluster_9</title>
<polygon fill="none" stroke="black" points="1059,-323.366 1059,-478.366 1157,-478.366 1157,-323.366 1059,-323.366"/>
<text text-anchor="middle" x="1108" y="-463.166" font-family="Times New Roman,serif" font-size="14.00">October</text>
</g>
<g id="clust11" class="cluster"><title>cluster_10</title>
<polygon fill="none" stroke="black" points="1177,-12.366 1177,-422.366 1275,-422.366 1275,-12.366 1177,-12.366"/>
<text text-anchor="middle" x="1226" y="-407.166" font-family="Times New Roman,serif" font-size="14.00">November</text>
</g>
<g id="clust12" class="cluster"><title>cluster_11</title>
<polygon fill="none" stroke="black" points="1295,-283.366 1295,-326.366 1368.6,-326.366 1368.6,-283.366 1295,-283.366"/>
<text text-anchor="middle" x="1331.8" y="-311.166" font-family="Times New Roman,serif" font-size="14.00">December</text>
</g>
<g id="clust13" class="cluster"><title>cluster_12</title>
<polygon fill="none" stroke="black" points="1387.6,-20.366 1387.6,-287.366 1485.6,-287.366 1485.6,-20.366 1387.6,-20.366"/>
<text text-anchor="middle" x="1436.6" y="-272.166" font-family="Times New Roman,serif" font-size="14.00">January</text>
</g>
<!-- order_node_0 -->
<!-- order_node_1 -->
<!-- order_node_0&#45;&gt;order_node_1 -->
<!-- node_0 -->
<g id="node2" class="node"><title>node_0</title>
<g id="a_node2"><a xlink:href="http://www.ijcai.org/" xlink:title="International Joint Conference on Artificial Intelligence" target="_blank">
<polygon fill="none" stroke="black" points="87,-327.366 16,-327.366 16,-289.366 87,-289.366 87,-327.366"/>
<text text-anchor="middle" x="51.5" y="-312.166" font-family="Times New Roman,serif" font-size="14.00">IJCAI</text>
<text text-anchor="middle" x="51.5" y="-297.166" font-family="Times New Roman,serif" font-size="14.00">Abstracts</text>
</a>
</g>
</g>
<!-- node_1 -->
<g id="node4" class="node"><title>node_1</title>
<g id="a_node4"><a xlink:href="http://www.ijcai.org/" xlink:title="International Joint Conference on Artificial Intelligence" target="_blank">
<polygon fill="none" stroke="black" points="205,-327.366 123,-327.366 123,-289.366 205,-289.366 205,-327.366"/>
<text text-anchor="middle" x="164" y="-312.166" font-family="Times New Roman,serif" font-size="14.00">IJCAI</text>
<text text-anchor="middle" x="164" y="-297.166" font-family="Times New Roman,serif" font-size="14.00">Submission</text>
</a>
</g>
</g>
<!-- node_0&#45;&gt;node_1 -->
<g id="edge1" class="edge"><title>node_0&#45;&gt;node_1</title>
<path fill="none" stroke="black" d="M87.1597,-308.366C95.2573,-308.366 104.043,-308.366 112.668,-308.366"/>
<polygon fill="black" stroke="black" points="112.669,-311.866 122.668,-308.366 112.668,-304.866 112.669,-311.866"/>
</g>
<!-- order_node_2 -->
<!-- order_node_1&#45;&gt;order_node_2 -->
<!-- node_4 -->
<g id="node9" class="node"><title>node_4</title>
<g id="a_node9"><a xlink:href="http://www.ijcai.org/" xlink:title="International Joint Conference on Artificial Intelligence" target="_blank">
<polygon fill="none" stroke="black" points="441,-445.366 359,-445.366 359,-407.366 441,-407.366 441,-445.366"/>
<text text-anchor="middle" x="400" y="-430.166" font-family="Times New Roman,serif" font-size="14.00">IJCAI</text>
<text text-anchor="middle" x="400" y="-415.166" font-family="Times New Roman,serif" font-size="14.00">Notification</text>
</a>
</g>
</g>
<!-- node_1&#45;&gt;node_4 -->
<g id="edge2" class="edge"><title>node_1&#45;&gt;node_4</title>
<path fill="none" stroke="black" d="M202.856,-327.456C243.552,-347.978 308.298,-380.627 352.169,-402.751"/>
<polygon fill="black" stroke="black" points="350.693,-405.926 361.198,-407.304 353.845,-399.676 350.693,-405.926"/>
</g>
<!-- order_node_3 -->
<!-- order_node_2&#45;&gt;order_node_3 -->
<!-- node_2 -->
<g id="node6" class="node"><title>node_2</title>
<g id="a_node6"><a xlink:href="http://auai.org/uai2017/index.php" xlink:title="Conference on Uncertainty in Artificial Intelligence" target="_blank">
<polygon fill="none" stroke="black" points="323,-243.366 241,-243.366 241,-205.366 323,-205.366 323,-243.366"/>
<text text-anchor="middle" x="282" y="-228.166" font-family="Times New Roman,serif" font-size="14.00">UAI</text>
<text text-anchor="middle" x="282" y="-213.166" font-family="Times New Roman,serif" font-size="14.00">Submission</text>
</a>
</g>
</g>
<!-- node_11 -->
<g id="node18" class="node"><title>node_11</title>
<g id="a_node18"><a xlink:href="http://auai.org/uai2017/index.php" xlink:title="Conference on Uncertainty in Artificial Intelligence" target="_blank">
<polygon fill="none" stroke="black" points="677,-199.366 595,-199.366 595,-161.366 677,-161.366 677,-199.366"/>
<text text-anchor="middle" x="636" y="-184.166" font-family="Times New Roman,serif" font-size="14.00">UAI</text>
<text text-anchor="middle" x="636" y="-169.166" font-family="Times New Roman,serif" font-size="14.00">Notification</text>
</a>
</g>
</g>
<!-- node_2&#45;&gt;node_11 -->
<g id="edge3" class="edge"><title>node_2&#45;&gt;node_11</title>
<path fill="none" stroke="black" d="M312.984,-205.295C324.432,-199.009 337.89,-192.763 351,-189.366 430.571,-168.75 526.878,-171.159 584.423,-175.353"/>
<polygon fill="black" stroke="black" points="584.463,-178.867 594.704,-176.152 585.005,-171.888 584.463,-178.867"/>
</g>
<!-- node_3 -->
<g id="node7" class="node"><title>node_3</title>
<g id="a_node7"><a xlink:href="http://www.iros.org/" xlink:title="International Conference on Intelligent Robots and Systems" target="_blank">
<polygon fill="none" stroke="black" points="323,-187.366 241,-187.366 241,-149.366 323,-149.366 323,-187.366"/>
<text text-anchor="middle" x="282" y="-172.166" font-family="Times New Roman,serif" font-size="14.00">IROS</text>
<text text-anchor="middle" x="282" y="-157.166" font-family="Times New Roman,serif" font-size="14.00">Submission</text>
</a>
</g>
</g>
<!-- node_12 -->
<g id="node19" class="node"><title>node_12</title>
<g id="a_node19"><a xlink:href="http://www.iros.org/" xlink:title="International Conference on Intelligent Robots and Systems" target="_blank">
<polygon fill="none" stroke="black" points="677,-143.366 595,-143.366 595,-105.366 677,-105.366 677,-143.366"/>
<text text-anchor="middle" x="636" y="-128.166" font-family="Times New Roman,serif" font-size="14.00">IROS</text>
<text text-anchor="middle" x="636" y="-113.166" font-family="Times New Roman,serif" font-size="14.00">Notification</text>
</a>
</g>
</g>
<!-- node_3&#45;&gt;node_12 -->
<g id="edge4" class="edge"><title>node_3&#45;&gt;node_12</title>
<path fill="none" stroke="black" d="M323.036,-163.361C387.527,-155.3 514.292,-139.455 584.757,-130.646"/>
<polygon fill="black" stroke="black" points="585.242,-134.113 594.731,-129.4 584.374,-127.167 585.242,-134.113"/>
</g>
<!-- order_node_4 -->
<!-- order_node_3&#45;&gt;order_node_4 -->
<!-- node_5 -->
<g id="node10" class="node"><title>node_5</title>
<g id="a_node10"><a xlink:href="http://www.ecai2016.org/" xlink:title="European Conference on Artificial Intelligence" target="_blank">
<polygon fill="none" stroke="black" points="441,-367.366 359,-367.366 359,-329.366 441,-329.366 441,-367.366"/>
<text text-anchor="middle" x="400" y="-352.166" font-family="Times New Roman,serif" font-size="14.00">ECAI</text>
<text text-anchor="middle" x="400" y="-337.166" font-family="Times New Roman,serif" font-size="14.00">Submission</text>
</a>
</g>
</g>
<!-- node_9 -->
<g id="node16" class="node"><title>node_9</title>
<g id="a_node16"><a xlink:href="http://www.ecai2016.org/" xlink:title="European Conference on Artificial Intelligence" target="_blank">
<polygon fill="none" stroke="black" points="677,-367.366 595,-367.366 595,-329.366 677,-329.366 677,-367.366"/>
<text text-anchor="middle" x="636" y="-352.166" font-family="Times New Roman,serif" font-size="14.00">ECAI</text>
<text text-anchor="middle" x="636" y="-337.166" font-family="Times New Roman,serif" font-size="14.00">Notification</text>
</a>
</g>
</g>
<!-- node_5&#45;&gt;node_9 -->
<g id="edge5" class="edge"><title>node_5&#45;&gt;node_9</title>
<path fill="none" stroke="black" d="M441.226,-348.366C480.942,-348.366 541.791,-348.366 584.686,-348.366"/>
<polygon fill="black" stroke="black" points="584.908,-351.866 594.908,-348.366 584.908,-344.866 584.908,-351.866"/>
</g>
<!-- node_6 -->
<g id="node11" class="node"><title>node_6</title>
<g id="a_node11"><a xlink:href="http://wibih.unomaha.edu/wi" xlink:title="International Conference on Intelligent Agent Technology" target="_blank">
<polygon fill="none" stroke="black" points="441,-311.366 359,-311.366 359,-273.366 441,-273.366 441,-311.366"/>
<text text-anchor="middle" x="400" y="-296.166" font-family="Times New Roman,serif" font-size="14.00">IAT</text>
<text text-anchor="middle" x="400" y="-281.166" font-family="Times New Roman,serif" font-size="14.00">Submission</text>
</a>
</g>
</g>
<!-- node_10 -->
<g id="node17" class="node"><title>node_10</title>
<g id="a_node17"><a xlink:href="http://wibih.unomaha.edu/wi" xlink:title="International Conference on Intelligent Agent Technology" target="_blank">
<polygon fill="none" stroke="black" points="677,-311.366 595,-311.366 595,-273.366 677,-273.366 677,-311.366"/>
<text text-anchor="middle" x="636" y="-296.166" font-family="Times New Roman,serif" font-size="14.00">IAT</text>
<text text-anchor="middle" x="636" y="-281.166" font-family="Times New Roman,serif" font-size="14.00">Notification</text>
</a>
</g>
</g>
<!-- node_6&#45;&gt;node_10 -->
<g id="edge6" class="edge"><title>node_6&#45;&gt;node_10</title>
<path fill="none" stroke="black" d="M441.226,-292.366C480.942,-292.366 541.791,-292.366 584.686,-292.366"/>
<polygon fill="black" stroke="black" points="584.908,-295.866 594.908,-292.366 584.908,-288.866 584.908,-295.866"/>
</g>
<!-- node_7 -->
<g id="node12" class="node"><title>node_7</title>
<g id="a_node12"><a xlink:href="http://software.imdea.org/Conferences/ICLP2016/" xlink:title="International Conference on Logic Programming" target="_blank">
<polygon fill="none" stroke="black" points="441,-254.866 359,-254.866 359,-201.866 441,-201.866 441,-254.866"/>
<text text-anchor="middle" x="400" y="-239.666" font-family="Times New Roman,serif" font-size="14.00">ICLP</text>
<text text-anchor="middle" x="400" y="-224.666" font-family="Times New Roman,serif" font-size="14.00">Abstracts</text>
<text text-anchor="middle" x="400" y="-209.666" font-family="Times New Roman,serif" font-size="14.00">Submission</text>
</a>
</g>
</g>
<!-- node_13 -->
<g id="node20" class="node"><title>node_13</title>
<g id="a_node20"><a xlink:href="http://software.imdea.org/Conferences/ICLP2016/" xlink:title="International Conference on Logic Programming" target="_blank">
<polygon fill="none" stroke="black" points="677,-255.366 595,-255.366 595,-217.366 677,-217.366 677,-255.366"/>
<text text-anchor="middle" x="636" y="-240.166" font-family="Times New Roman,serif" font-size="14.00">ICLP</text>
<text text-anchor="middle" x="636" y="-225.166" font-family="Times New Roman,serif" font-size="14.00">Notification</text>
</a>
</g>
</g>
<!-- node_7&#45;&gt;node_13 -->
<g id="edge7" class="edge"><title>node_7&#45;&gt;node_13</title>
<path fill="none" stroke="black" d="M441.226,-229.741C480.942,-231.099 541.791,-233.179 584.686,-234.646"/>
<polygon fill="black" stroke="black" points="584.794,-238.152 594.908,-234.995 585.033,-231.156 584.794,-238.152"/>
</g>
<!-- order_node_5 -->
<!-- order_node_4&#45;&gt;order_node_5 -->
<!-- node_8 -->
<g id="node14" class="node"><title>node_8</title>
<g id="a_node14"><a xlink:href="http://www.kr.org/" xlink:title="International Conference on Principles of Knowledge Representation and Reasoning" target="_blank">
<polygon fill="none" stroke="black" points="559,-459.866 477,-459.866 477,-406.866 559,-406.866 559,-459.866"/>
<text text-anchor="middle" x="518" y="-444.666" font-family="Times New Roman,serif" font-size="14.00">KR</text>
<text text-anchor="middle" x="518" y="-429.666" font-family="Times New Roman,serif" font-size="14.00">Abstracts</text>
<text text-anchor="middle" x="518" y="-414.666" font-family="Times New Roman,serif" font-size="14.00">Submission</text>
</a>
</g>
</g>
<!-- node_15 -->
<g id="node23" class="node"><title>node_15</title>
<g id="a_node23"><a xlink:href="http://www.kr.org/" xlink:title="International Conference on Principles of Knowledge Representation and Reasoning" target="_blank">
<polygon fill="none" stroke="black" points="795,-459.366 713,-459.366 713,-421.366 795,-421.366 795,-459.366"/>
<text text-anchor="middle" x="754" y="-444.166" font-family="Times New Roman,serif" font-size="14.00">KR</text>
<text text-anchor="middle" x="754" y="-429.166" font-family="Times New Roman,serif" font-size="14.00">Notification</text>
</a>
</g>
</g>
<!-- node_8&#45;&gt;node_15 -->
<g id="edge8" class="edge"><title>node_8&#45;&gt;node_15</title>
<path fill="none" stroke="black" d="M559.226,-434.569C598.942,-435.757 659.791,-437.578 702.686,-438.861"/>
<polygon fill="black" stroke="black" points="702.808,-442.366 712.908,-439.167 703.017,-435.369 702.808,-442.366"/>
</g>
<!-- order_node_6 -->
<!-- order_node_5&#45;&gt;order_node_6 -->
<!-- order_node_7 -->
<!-- order_node_6&#45;&gt;order_node_7 -->
<!-- node_14 -->
<g id="node22" class="node"><title>node_14</title>
<g id="a_node22"><a xlink:href="http://sbgames.org/" xlink:title="Simposio Brasileiro de Games e Entretenimento Digital" target="_blank">
<polygon fill="none" stroke="black" points="795,-402.866 713,-402.866 713,-349.866 795,-349.866 795,-402.866"/>
<text text-anchor="middle" x="754" y="-387.666" font-family="Times New Roman,serif" font-size="14.00">SBGames</text>
<text text-anchor="middle" x="754" y="-372.666" font-family="Times New Roman,serif" font-size="14.00">Abstracts</text>
<text text-anchor="middle" x="754" y="-357.666" font-family="Times New Roman,serif" font-size="14.00">Submission</text>
</a>
</g>
</g>
<!-- node_16 -->
<g id="node25" class="node"><title>node_16</title>
<g id="a_node25"><a xlink:href="http://sbgames.org/" xlink:title="Simposio Brasileiro de Games e Entretenimento Digital" target="_blank">
<polygon fill="none" stroke="black" points="913,-391.366 831,-391.366 831,-353.366 913,-353.366 913,-391.366"/>
<text text-anchor="middle" x="872" y="-376.166" font-family="Times New Roman,serif" font-size="14.00">SBGames</text>
<text text-anchor="middle" x="872" y="-361.166" font-family="Times New Roman,serif" font-size="14.00">Notification</text>
</a>
</g>
</g>
<!-- node_14&#45;&gt;node_16 -->
<g id="edge9" class="edge"><title>node_14&#45;&gt;node_16</title>
<path fill="none" stroke="black" d="M795.246,-374.978C803.433,-374.696 812.144,-374.396 820.632,-374.103"/>
<polygon fill="black" stroke="black" points="820.952,-377.594 830.826,-373.751 820.711,-370.598 820.952,-377.594"/>
</g>
<!-- order_node_8 -->
<!-- order_node_7&#45;&gt;order_node_8 -->
<!-- order_node_9 -->
<!-- order_node_8&#45;&gt;order_node_9 -->
<!-- node_17 -->
<g id="node27" class="node"><title>node_17</title>
<g id="a_node27"><a xlink:href="http://www.icra2017.org/" xlink:title="International Conference on Robotics and Automation" target="_blank">
<polygon fill="none" stroke="black" points="1031,-171.366 949,-171.366 949,-133.366 1031,-133.366 1031,-171.366"/>
<text text-anchor="middle" x="990" y="-156.166" font-family="Times New Roman,serif" font-size="14.00">ICRA</text>
<text text-anchor="middle" x="990" y="-141.166" font-family="Times New Roman,serif" font-size="14.00">Submission</text>
</a>
</g>
</g>
<!-- node_29 -->
<g id="node43" class="node"><title>node_29</title>
<g id="a_node43"><a xlink:href="http://www.icra2017.org/" xlink:title="International Conference on Robotics and Automation" target="_blank">
<polygon fill="none" stroke="black" points="1477.6,-66.366 1395.6,-66.366 1395.6,-28.366 1477.6,-28.366 1477.6,-66.366"/>
<text text-anchor="middle" x="1436.6" y="-51.166" font-family="Times New Roman,serif" font-size="14.00">ICRA</text>
<text text-anchor="middle" x="1436.6" y="-36.166" font-family="Times New Roman,serif" font-size="14.00">Notification</text>
</a>
</g>
</g>
<!-- node_17&#45;&gt;node_29 -->
<g id="edge10" class="edge"><title>node_17&#45;&gt;node_29</title>
<path fill="none" stroke="black" d="M1006.35,-133.266C1035.3,-99.1214 1101.84,-29.2338 1177,-8.36598 1248.1,11.3759 1333.15,-9.66813 1385.78,-27.668"/>
<polygon fill="black" stroke="black" points="1384.95,-31.0843 1395.54,-31.0986 1387.27,-24.4804 1384.95,-31.0843"/>
</g>
<!-- node_18 -->
<g id="node28" class="node"><title>node_18</title>
<g id="a_node28"><a xlink:href="http://www.sigapp.org/sac/" xlink:title="Symposium On Applied Computing" target="_blank">
<polygon fill="none" stroke="black" points="1031,-313.866 949,-313.866 949,-260.866 1031,-260.866 1031,-313.866"/>
<text text-anchor="middle" x="990" y="-298.666" font-family="Times New Roman,serif" font-size="14.00">SAC</text>
<text text-anchor="middle" x="990" y="-283.666" font-family="Times New Roman,serif" font-size="14.00">Abstracts</text>
<text text-anchor="middle" x="990" y="-268.666" font-family="Times New Roman,serif" font-size="14.00">Submission</text>
</a>
</g>
</g>
<!-- node_24 -->
<g id="node36" class="node"><title>node_24</title>
<g id="a_node36"><a xlink:href="http://www.sigapp.org/sac/" xlink:title="Symposium On Applied Computing" target="_blank">
<polygon fill="none" stroke="black" points="1267,-313.366 1185,-313.366 1185,-275.366 1267,-275.366 1267,-313.366"/>
<text text-anchor="middle" x="1226" y="-298.166" font-family="Times New Roman,serif" font-size="14.00">SAC</text>
<text text-anchor="middle" x="1226" y="-283.166" font-family="Times New Roman,serif" font-size="14.00">Notification</text>
</a>
</g>
</g>
<!-- node_18&#45;&gt;node_24 -->
<g id="edge11" class="edge"><title>node_18&#45;&gt;node_24</title>
<path fill="none" stroke="black" d="M1031.23,-288.569C1070.94,-289.757 1131.79,-291.578 1174.69,-292.861"/>
<polygon fill="black" stroke="black" points="1174.81,-296.366 1184.91,-293.167 1175.02,-289.369 1174.81,-296.366"/>
</g>
<!-- node_19 -->
<g id="node29" class="node"><title>node_19</title>
<g id="a_node29"><a xlink:href="http://www.aaai.org/Conferences/conferences.php" xlink:title="Association for the Advancement of Artificial Intelligence" target="_blank">
<polygon fill="none" stroke="black" points="1031,-242.866 949,-242.866 949,-189.866 1031,-189.866 1031,-242.866"/>
<text text-anchor="middle" x="990" y="-227.666" font-family="Times New Roman,serif" font-size="14.00">AAAI</text>
<text text-anchor="middle" x="990" y="-212.666" font-family="Times New Roman,serif" font-size="14.00">Abstracts</text>
<text text-anchor="middle" x="990" y="-197.666" font-family="Times New Roman,serif" font-size="14.00">Submission</text>
</a>
</g>
</g>
<!-- node_23 -->
<g id="node35" class="node"><title>node_23</title>
<g id="a_node35"><a xlink:href="http://www.aaai.org/Conferences/conferences.php" xlink:title="Association for the Advancement of Artificial Intelligence" target="_blank">
<polygon fill="none" stroke="black" points="1267,-58.366 1185,-58.366 1185,-20.366 1267,-20.366 1267,-58.366"/>
<text text-anchor="middle" x="1226" y="-43.166" font-family="Times New Roman,serif" font-size="14.00">AAAI</text>
<text text-anchor="middle" x="1226" y="-28.166" font-family="Times New Roman,serif" font-size="14.00">Notification</text>
</a>
</g>
</g>
<!-- node_19&#45;&gt;node_23 -->
<g id="edge12" class="edge"><title>node_19&#45;&gt;node_23</title>
<path fill="none" stroke="black" d="M1026.78,-189.797C1030.92,-186.644 1035.06,-183.451 1039,-180.366 1101.39,-131.462 1111.89,-112.59 1177,-67.366 1178.63,-66.2308 1180.32,-65.0968 1182.03,-63.9712"/>
<polygon fill="black" stroke="black" points="1184.18,-66.7528 1190.75,-58.4457 1180.43,-60.8389 1184.18,-66.7528"/>
</g>
<!-- node_20 -->
<g id="node30" class="node"><title>node_20</title>
<g id="a_node30"><a xlink:href="http://eumas-at2016.webs.upv.es/EUMAS2016.html" xlink:title="European Conference on Multi&#45;Agent Systems" target="_blank">
<polygon fill="none" stroke="black" points="1031,-391.366 949,-391.366 949,-353.366 1031,-353.366 1031,-391.366"/>
<text text-anchor="middle" x="990" y="-376.166" font-family="Times New Roman,serif" font-size="14.00">EUMAS</text>
<text text-anchor="middle" x="990" y="-361.166" font-family="Times New Roman,serif" font-size="14.00">Submission</text>
</a>
</g>
</g>
<!-- node_22 -->
<g id="node33" class="node"><title>node_22</title>
<g id="a_node33"><a xlink:href="http://eumas-at2016.webs.upv.es/EUMAS2016.html" xlink:title="European Conference on Multi&#45;Agent Systems" target="_blank">
<polygon fill="none" stroke="black" points="1149,-447.366 1067,-447.366 1067,-409.366 1149,-409.366 1149,-447.366"/>
<text text-anchor="middle" x="1108" y="-432.166" font-family="Times New Roman,serif" font-size="14.00">EUMAS</text>
<text text-anchor="middle" x="1108" y="-417.166" font-family="Times New Roman,serif" font-size="14.00">Notification</text>
</a>
</g>
</g>
<!-- node_20&#45;&gt;node_22 -->
<g id="edge13" class="edge"><title>node_20&#45;&gt;node_22</title>
<path fill="none" stroke="black" d="M1030.6,-391.481C1039.56,-395.806 1049.17,-400.447 1058.45,-404.927"/>
<polygon fill="black" stroke="black" points="1057.06,-408.141 1067.58,-409.337 1060.1,-401.837 1057.06,-408.141"/>
</g>
<!-- order_node_10 -->
<!-- order_node_9&#45;&gt;order_node_10 -->
<!-- node_21 -->
<g id="node32" class="node"><title>node_21</title>
<g id="a_node32"><a xlink:href="http://www.icaart.org/" xlink:title="International Conference on Agents and Artificial Intelligence" target="_blank">
<polygon fill="none" stroke="black" points="1149,-391.366 1067,-391.366 1067,-353.366 1149,-353.366 1149,-391.366"/>
<text text-anchor="middle" x="1108" y="-376.166" font-family="Times New Roman,serif" font-size="14.00">ICAART</text>
<text text-anchor="middle" x="1108" y="-361.166" font-family="Times New Roman,serif" font-size="14.00">Submission</text>
</a>
</g>
</g>
<!-- node_28 -->
<g id="node40" class="node"><title>node_28</title>
<g id="a_node40"><a xlink:href="http://www.icaart.org/" xlink:title="International Conference on Agents and Artificial Intelligence" target="_blank">
<polygon fill="none" stroke="black" points="1267,-391.366 1185,-391.366 1185,-353.366 1267,-353.366 1267,-391.366"/>
<text text-anchor="middle" x="1226" y="-376.166" font-family="Times New Roman,serif" font-size="14.00">ICAART</text>
<text text-anchor="middle" x="1226" y="-361.166" font-family="Times New Roman,serif" font-size="14.00">Notification</text>
</a>
</g>
</g>
<!-- node_21&#45;&gt;node_28 -->
<g id="edge14" class="edge"><title>node_21&#45;&gt;node_28</title>
<path fill="none" stroke="black" d="M1149.25,-372.366C1157.43,-372.366 1166.14,-372.366 1174.63,-372.366"/>
<polygon fill="black" stroke="black" points="1174.83,-375.866 1184.83,-372.366 1174.83,-368.866 1174.83,-375.866"/>
</g>
<!-- order_node_11 -->
<!-- order_node_10&#45;&gt;order_node_11 -->
<!-- node_25 -->
<g id="node37" class="node"><title>node_25</title>
<g id="a_node37"><a xlink:href="http://www.icaps-conference.org/" xlink:title="International Conference on Automated Planning and Scheduling" target="_blank">
<polygon fill="none" stroke="black" points="1267,-256.866 1185,-256.866 1185,-203.866 1267,-203.866 1267,-256.866"/>
<text text-anchor="middle" x="1226" y="-241.666" font-family="Times New Roman,serif" font-size="14.00">ICAPS</text>
<text text-anchor="middle" x="1226" y="-226.666" font-family="Times New Roman,serif" font-size="14.00">Abstracts</text>
<text text-anchor="middle" x="1226" y="-211.666" font-family="Times New Roman,serif" font-size="14.00">Submission</text>
</a>
</g>
</g>
<!-- node_30 -->
<g id="node44" class="node"><title>node_30</title>
<g id="a_node44"><a xlink:href="http://www.icaps-conference.org/" xlink:title="International Conference on Automated Planning and Scheduling" target="_blank">
<polygon fill="none" stroke="black" points="1477.6,-234.366 1395.6,-234.366 1395.6,-196.366 1477.6,-196.366 1477.6,-234.366"/>
<text text-anchor="middle" x="1436.6" y="-219.166" font-family="Times New Roman,serif" font-size="14.00">ICAPS</text>
<text text-anchor="middle" x="1436.6" y="-204.166" font-family="Times New Roman,serif" font-size="14.00">Notification</text>
</a>
</g>
</g>
<!-- node_25&#45;&gt;node_30 -->
<g id="edge15" class="edge"><title>node_25&#45;&gt;node_30</title>
<path fill="none" stroke="black" d="M1267.22,-227.474C1300.84,-225.056 1348.96,-221.596 1385.16,-218.993"/>
<polygon fill="black" stroke="black" points="1385.78,-222.458 1395.5,-218.249 1385.28,-215.476 1385.78,-222.458"/>
</g>
<!-- node_26 -->
<g id="node38" class="node"><title>node_26</title>
<g id="a_node38"><a xlink:href="http://www.ifaamas.org/" xlink:title="International Conference on Autonomous Agents and Multiagent Systems" target="_blank">
<polygon fill="none" stroke="black" points="1267,-185.866 1185,-185.866 1185,-132.866 1267,-132.866 1267,-185.866"/>
<text text-anchor="middle" x="1226" y="-170.666" font-family="Times New Roman,serif" font-size="14.00">AAMAS</text>
<text text-anchor="middle" x="1226" y="-155.666" font-family="Times New Roman,serif" font-size="14.00">Abstracts</text>
<text text-anchor="middle" x="1226" y="-140.666" font-family="Times New Roman,serif" font-size="14.00">Submission</text>
</a>
</g>
</g>
<!-- node_31 -->
<g id="node45" class="node"><title>node_31</title>
<g id="a_node45"><a xlink:href="http://www.ifaamas.org/" xlink:title="International Conference on Autonomous Agents and Multiagent Systems" target="_blank">
<polygon fill="none" stroke="black" points="1477.6,-178.366 1395.6,-178.366 1395.6,-140.366 1477.6,-140.366 1477.6,-178.366"/>
<text text-anchor="middle" x="1436.6" y="-163.166" font-family="Times New Roman,serif" font-size="14.00">AAMAS</text>
<text text-anchor="middle" x="1436.6" y="-148.166" font-family="Times New Roman,serif" font-size="14.00">Notification</text>
</a>
</g>
</g>
<!-- node_26&#45;&gt;node_31 -->
<g id="edge16" class="edge"><title>node_26&#45;&gt;node_31</title>
<path fill="none" stroke="black" d="M1267.22,-159.366C1300.84,-159.366 1348.96,-159.366 1385.16,-159.366"/>
<polygon fill="black" stroke="black" points="1385.5,-162.866 1395.5,-159.366 1385.5,-155.866 1385.5,-162.866"/>
</g>
<!-- node_27 -->
<g id="node39" class="node"><title>node_27</title>
<g id="a_node39"><a xlink:href="http://www.flairs.com/" xlink:title="Florida Artificial Intelligence Research Society" target="_blank">
<polygon fill="none" stroke="black" points="1267,-114.366 1185,-114.366 1185,-76.366 1267,-76.366 1267,-114.366"/>
<text text-anchor="middle" x="1226" y="-99.166" font-family="Times New Roman,serif" font-size="14.00">FLAIRS</text>
<text text-anchor="middle" x="1226" y="-84.166" font-family="Times New Roman,serif" font-size="14.00">Submission</text>
</a>
</g>
</g>
<!-- node_32 -->
<g id="node46" class="node"><title>node_32</title>
<g id="a_node46"><a xlink:href="http://www.flairs.com/" xlink:title="Florida Artificial Intelligence Research Society" target="_blank">
<polygon fill="none" stroke="black" points="1477.6,-122.366 1395.6,-122.366 1395.6,-84.366 1477.6,-84.366 1477.6,-122.366"/>
<text text-anchor="middle" x="1436.6" y="-107.166" font-family="Times New Roman,serif" font-size="14.00">FLAIRS</text>
<text text-anchor="middle" x="1436.6" y="-92.166" font-family="Times New Roman,serif" font-size="14.00">Notification</text>
</a>
</g>
</g>
<!-- node_27&#45;&gt;node_32 -->
<g id="edge17" class="edge"><title>node_27&#45;&gt;node_32</title>
<path fill="none" stroke="black" d="M1267.22,-96.9085C1300.84,-98.1978 1348.96,-100.043 1385.16,-101.432"/>
<polygon fill="black" stroke="black" points="1385.38,-104.942 1395.5,-101.828 1385.64,-97.9475 1385.38,-104.942"/>
</g>
<!-- order_node_12 -->
<!-- order_node_11&#45;&gt;order_node_12 -->
</g>
</svg>
