<?xml version="1.0" encoding="UTF-8" standalone="no"?>
<!DOCTYPE svg PUBLIC "-//W3C//DTD SVG 1.1//EN"
 "http://www.w3.org/Graphics/SVG/1.1/DTD/svg11.dtd">
<!-- Generated by graphviz version 2.38.0 (20140413.2041)
 -->
<!-- Title: conferences Pages: 1 -->
<svg width="1562pt" height="509pt"
 viewBox="0.00 0.00 1562.20 508.59" xmlns="http://www.w3.org/2000/svg" xmlns:xlink="http://www.w3.org/1999/xlink">
<g id="graph0" class="graph" transform="scale(1 1) rotate(0) translate(4 504.593)">
<title>conferences</title>
<polygon fill="white" stroke="none" points="-4,4 -4,-504.593 1558.2,-504.593 1558.2,4 -4,4"/>
<g id="clust1" class="cluster"><title>cluster_0</title>
<polygon fill="none" stroke="black" points="8,-334.593 8,-433.593 95,-433.593 95,-334.593 8,-334.593"/>
<text text-anchor="middle" x="51.5" y="-418.393" font-family="Times New Roman,serif" font-size="14.00">January</text>
</g>
<g id="clust2" class="cluster"><title>cluster_1</title>
<polygon fill="none" stroke="black" points="115,-334.593 115,-433.593 213,-433.593 213,-334.593 115,-334.593"/>
<text text-anchor="middle" x="164" y="-418.393" font-family="Times New Roman,serif" font-size="14.00">February</text>
</g>
<g id="clust3" class="cluster"><title>cluster_2</title>
<polygon fill="none" stroke="black" points="233,-272.593 233,-371.593 331,-371.593 331,-272.593 233,-272.593"/>
<text text-anchor="middle" x="282" y="-356.393" font-family="Times New Roman,serif" font-size="14.00">March</text>
</g>
<g id="clust4" class="cluster"><title>cluster_3</title>
<polygon fill="none" stroke="black" points="351,-272.593 351,-483.593 449,-483.593 449,-272.593 351,-272.593"/>
<text text-anchor="middle" x="400" y="-468.393" font-family="Times New Roman,serif" font-size="14.00">April</text>
</g>
<g id="clust5" class="cluster"><title>cluster_4</title>
<polygon fill="none" stroke="black" points="469,-324.593 469,-367.593 509.6,-367.593 509.6,-324.593 469,-324.593"/>
<text text-anchor="middle" x="489.3" y="-352.393" font-family="Times New Roman,serif" font-size="14.00">May</text>
</g>
<g id="clust6" class="cluster"><title>cluster_5</title>
<polygon fill="none" stroke="black" points="529.6,-221.593 529.6,-432.593 627.6,-432.593 627.6,-221.593 529.6,-221.593"/>
<text text-anchor="middle" x="578.6" y="-417.393" font-family="Times New Roman,serif" font-size="14.00">June</text>
</g>
<g id="clust7" class="cluster"><title>cluster_6</title>
<polygon fill="none" stroke="black" points="647.6,-262.593 647.6,-376.593 745.6,-376.593 745.6,-262.593 647.6,-262.593"/>
<text text-anchor="middle" x="696.6" y="-361.393" font-family="Times New Roman,serif" font-size="14.00">July</text>
</g>
<g id="clust8" class="cluster"><title>cluster_7</title>
<polygon fill="none" stroke="black" points="765.6,-273.593 765.6,-372.593 863.6,-372.593 863.6,-273.593 765.6,-273.593"/>
<text text-anchor="middle" x="814.6" y="-357.393" font-family="Times New Roman,serif" font-size="14.00">August</text>
</g>
<g id="clust9" class="cluster"><title>cluster_8</title>
<polygon fill="none" stroke="black" points="883.6,-131.593 883.6,-428.593 981.6,-428.593 981.6,-131.593 883.6,-131.593"/>
<text text-anchor="middle" x="932.6" y="-413.393" font-family="Times New Roman,serif" font-size="14.00">September</text>
</g>
<g id="clust10" class="cluster"><title>cluster_9</title>
<polygon fill="none" stroke="black" points="1001.6,-317.593 1001.6,-472.593 1099.6,-472.593 1099.6,-317.593 1001.6,-317.593"/>
<text text-anchor="middle" x="1050.6" y="-457.393" font-family="Times New Roman,serif" font-size="14.00">October</text>
</g>
<g id="clust11" class="cluster"><title>cluster_10</title>
<polygon fill="none" stroke="black" points="1119.6,-11.5933 1119.6,-492.593 1217.6,-492.593 1217.6,-11.5933 1119.6,-11.5933"/>
<text text-anchor="middle" x="1168.6" y="-477.393" font-family="Times New Roman,serif" font-size="14.00">November</text>
</g>
<g id="clust12" class="cluster"><title>cluster_11</title>
<polygon fill="none" stroke="black" points="1237.6,-283.593 1237.6,-326.593 1311.2,-326.593 1311.2,-283.593 1237.6,-283.593"/>
<text text-anchor="middle" x="1274.4" y="-311.393" font-family="Times New Roman,serif" font-size="14.00">December</text>
</g>
<g id="clust13" class="cluster"><title>cluster_12</title>
<polygon fill="none" stroke="black" points="1330.2,-28.5933 1330.2,-295.593 1428.2,-295.593 1428.2,-28.5933 1330.2,-28.5933"/>
<text text-anchor="middle" x="1379.2" y="-280.393" font-family="Times New Roman,serif" font-size="14.00">January</text>
</g>
<g id="clust14" class="cluster"><title>cluster_13</title>
<polygon fill="none" stroke="black" points="1448.2,-258.593 1448.2,-357.593 1546.2,-357.593 1546.2,-258.593 1448.2,-258.593"/>
<text text-anchor="middle" x="1497.2" y="-342.393" font-family="Times New Roman,serif" font-size="14.00">February</text>
</g>
<!-- order_node_0 -->
<!-- order_node_1 -->
<!-- order_node_0&#45;&gt;order_node_1 -->
<!-- node_0 -->
<g id="node2" class="node"><title>node_0</title>
<g id="a_node2"><a xlink:href="http://www.ijcai.org/" xlink:title="International Joint Conference on Artificial Intelligence">
<polygon fill="none" stroke="black" points="87,-402.593 16,-402.593 16,-364.593 87,-364.593 87,-402.593"/>
<text text-anchor="middle" x="51.5" y="-387.393" font-family="Times New Roman,serif" font-size="14.00">IJCAI</text>
<text text-anchor="middle" x="51.5" y="-372.393" font-family="Times New Roman,serif" font-size="14.00">Abstracts</text>
</a>
</g>
</g>
<!-- node_1 -->
<g id="node4" class="node"><title>node_1</title>
<g id="a_node4"><a xlink:href="http://www.ijcai.org/" xlink:title="International Joint Conference on Artificial Intelligence">
<polygon fill="none" stroke="black" points="205,-402.593 123,-402.593 123,-364.593 205,-364.593 205,-402.593"/>
<text text-anchor="middle" x="164" y="-387.393" font-family="Times New Roman,serif" font-size="14.00">IJCAI</text>
<text text-anchor="middle" x="164" y="-372.393" font-family="Times New Roman,serif" font-size="14.00">Submission</text>
</a>
</g>
</g>
<!-- node_0&#45;&gt;node_1 -->
<g id="edge1" class="edge"><title>node_0&#45;&gt;node_1</title>
<path fill="none" stroke="black" d="M87.1597,-383.593C95.2573,-383.593 104.043,-383.593 112.668,-383.593"/>
<polygon fill="black" stroke="black" points="112.669,-387.093 122.668,-383.593 112.668,-380.093 112.669,-387.093"/>
</g>
<!-- order_node_2 -->
<!-- order_node_1&#45;&gt;order_node_2 -->
<!-- node_3 -->
<g id="node8" class="node"><title>node_3</title>
<g id="a_node8"><a xlink:href="http://www.ijcai.org/" xlink:title="International Joint Conference on Artificial Intelligence">
<polygon fill="none" stroke="black" points="441,-452.593 359,-452.593 359,-414.593 441,-414.593 441,-452.593"/>
<text text-anchor="middle" x="400" y="-437.393" font-family="Times New Roman,serif" font-size="14.00">IJCAI</text>
<text text-anchor="middle" x="400" y="-422.393" font-family="Times New Roman,serif" font-size="14.00">Notification</text>
</a>
</g>
</g>
<!-- node_1&#45;&gt;node_3 -->
<g id="edge2" class="edge"><title>node_1&#45;&gt;node_3</title>
<path fill="none" stroke="black" d="M205.226,-392.189C245.026,-400.693 306.048,-413.732 348.958,-422.9"/>
<polygon fill="black" stroke="black" points="348.397,-426.36 358.908,-425.027 349.86,-419.514 348.397,-426.36"/>
</g>
<!-- order_node_3 -->
<!-- order_node_2&#45;&gt;order_node_3 -->
<!-- node_2 -->
<g id="node6" class="node"><title>node_2</title>
<g id="a_node6"><a xlink:href="http://www.iros.org/" xlink:title="International Conference on Intelligent Robots and Systems">
<polygon fill="none" stroke="black" points="323,-318.593 241,-318.593 241,-280.593 323,-280.593 323,-318.593"/>
<text text-anchor="middle" x="282" y="-303.393" font-family="Times New Roman,serif" font-size="14.00">IROS</text>
<text text-anchor="middle" x="282" y="-288.393" font-family="Times New Roman,serif" font-size="14.00">Submission</text>
</a>
</g>
</g>
<!-- node_8 -->
<g id="node15" class="node"><title>node_8</title>
<g id="a_node15"><a xlink:href="http://www.iros.org/" xlink:title="International Conference on Intelligent Robots and Systems">
<polygon fill="none" stroke="black" points="619.6,-267.593 537.6,-267.593 537.6,-229.593 619.6,-229.593 619.6,-267.593"/>
<text text-anchor="middle" x="578.6" y="-252.393" font-family="Times New Roman,serif" font-size="14.00">IROS</text>
<text text-anchor="middle" x="578.6" y="-237.393" font-family="Times New Roman,serif" font-size="14.00">Notification</text>
</a>
</g>
</g>
<!-- node_2&#45;&gt;node_8 -->
<g id="edge3" class="edge"><title>node_2&#45;&gt;node_8</title>
<path fill="none" stroke="black" d="M318.861,-280.503C328.997,-275.871 340.211,-271.439 351,-268.593 410.111,-253.002 480.586,-248.954 527.07,-248.189"/>
<polygon fill="black" stroke="black" points="527.233,-251.687 537.19,-248.068 527.149,-244.688 527.233,-251.687"/>
</g>
<!-- order_node_4 -->
<!-- order_node_3&#45;&gt;order_node_4 -->
<!-- node_4 -->
<g id="node9" class="node"><title>node_4</title>
<g id="a_node9"><a xlink:href="http://www.ecai2016.org/" xlink:title="European Conference on Artificial Intelligence">
<polygon fill="none" stroke="black" points="441,-318.593 359,-318.593 359,-280.593 441,-280.593 441,-318.593"/>
<text text-anchor="middle" x="400" y="-303.393" font-family="Times New Roman,serif" font-size="14.00">ECAI</text>
<text text-anchor="middle" x="400" y="-288.393" font-family="Times New Roman,serif" font-size="14.00">Submission</text>
</a>
</g>
</g>
<!-- node_6 -->
<g id="node13" class="node"><title>node_6</title>
<g id="a_node13"><a xlink:href="http://www.ecai2016.org/" xlink:title="European Conference on Artificial Intelligence">
<polygon fill="none" stroke="black" points="619.6,-323.593 537.6,-323.593 537.6,-285.593 619.6,-285.593 619.6,-323.593"/>
<text text-anchor="middle" x="578.6" y="-308.393" font-family="Times New Roman,serif" font-size="14.00">ECAI</text>
<text text-anchor="middle" x="578.6" y="-293.393" font-family="Times New Roman,serif" font-size="14.00">Notification</text>
</a>
</g>
</g>
<!-- node_4&#45;&gt;node_6 -->
<g id="edge4" class="edge"><title>node_4&#45;&gt;node_6</title>
<path fill="none" stroke="black" d="M441.073,-300.728C466.611,-301.451 499.911,-302.394 527.231,-303.167"/>
<polygon fill="black" stroke="black" points="527.285,-306.67 537.38,-303.455 527.483,-299.673 527.285,-306.67"/>
</g>
<!-- node_5 -->
<g id="node10" class="node"><title>node_5</title>
<g id="a_node10"><a xlink:href="http://wibih.unomaha.edu/wi" xlink:title="International Conference on Intelligent Agent Technology">
<polygon fill="none" stroke="black" points="441,-396.593 359,-396.593 359,-358.593 441,-358.593 441,-396.593"/>
<text text-anchor="middle" x="400" y="-381.393" font-family="Times New Roman,serif" font-size="14.00">IAT</text>
<text text-anchor="middle" x="400" y="-366.393" font-family="Times New Roman,serif" font-size="14.00">Submission</text>
</a>
</g>
</g>
<!-- node_7 -->
<g id="node14" class="node"><title>node_7</title>
<g id="a_node14"><a xlink:href="http://wibih.unomaha.edu/wi" xlink:title="International Conference on Intelligent Agent Technology">
<polygon fill="none" stroke="black" points="619.6,-401.593 537.6,-401.593 537.6,-363.593 619.6,-363.593 619.6,-401.593"/>
<text text-anchor="middle" x="578.6" y="-386.393" font-family="Times New Roman,serif" font-size="14.00">IAT</text>
<text text-anchor="middle" x="578.6" y="-371.393" font-family="Times New Roman,serif" font-size="14.00">Notification</text>
</a>
</g>
</g>
<!-- node_5&#45;&gt;node_7 -->
<g id="edge5" class="edge"><title>node_5&#45;&gt;node_7</title>
<path fill="none" stroke="black" d="M441.073,-378.728C466.611,-379.451 499.911,-380.394 527.231,-381.167"/>
<polygon fill="black" stroke="black" points="527.285,-384.67 537.38,-381.455 527.483,-377.673 527.285,-384.67"/>
</g>
<!-- order_node_5 -->
<!-- order_node_4&#45;&gt;order_node_5 -->
<!-- order_node_6 -->
<!-- order_node_5&#45;&gt;order_node_6 -->
<!-- order_node_7 -->
<!-- order_node_6&#45;&gt;order_node_7 -->
<!-- node_9 -->
<g id="node17" class="node"><title>node_9</title>
<g id="a_node17"><a xlink:href="http://sbgames.org/" xlink:title="Simposio Brasileiro de Games e Entretenimento Digital">
<polygon fill="none" stroke="black" points="737.6,-324.093 655.6,-324.093 655.6,-271.093 737.6,-271.093 737.6,-324.093"/>
<text text-anchor="middle" x="696.6" y="-308.893" font-family="Times New Roman,serif" font-size="14.00">SBGames</text>
<text text-anchor="middle" x="696.6" y="-293.893" font-family="Times New Roman,serif" font-size="14.00">Abstracts</text>
<text text-anchor="middle" x="696.6" y="-278.893" font-family="Times New Roman,serif" font-size="14.00">Submission</text>
</a>
</g>
</g>
<!-- node_10 -->
<g id="node19" class="node"><title>node_10</title>
<g id="a_node19"><a xlink:href="http://sbgames.org/" xlink:title="Simposio Brasileiro de Games e Entretenimento Digital">
<polygon fill="none" stroke="black" points="855.6,-319.593 773.6,-319.593 773.6,-281.593 855.6,-281.593 855.6,-319.593"/>
<text text-anchor="middle" x="814.6" y="-304.393" font-family="Times New Roman,serif" font-size="14.00">SBGames</text>
<text text-anchor="middle" x="814.6" y="-289.393" font-family="Times New Roman,serif" font-size="14.00">Notification</text>
</a>
</g>
</g>
<!-- node_9&#45;&gt;node_10 -->
<g id="edge6" class="edge"><title>node_9&#45;&gt;node_10</title>
<path fill="none" stroke="black" d="M737.846,-298.634C746.033,-298.846 754.744,-299.071 763.232,-299.291"/>
<polygon fill="black" stroke="black" points="763.338,-302.795 773.426,-299.554 763.519,-295.797 763.338,-302.795"/>
</g>
<!-- order_node_8 -->
<!-- order_node_7&#45;&gt;order_node_8 -->
<!-- order_node_9 -->
<!-- order_node_8&#45;&gt;order_node_9 -->
<!-- node_11 -->
<g id="node21" class="node"><title>node_11</title>
<g id="a_node21"><a xlink:href="http://www.icra2017.org/" xlink:title="International Conference on Robotics and Automation">
<polygon fill="none" stroke="black" points="973.6,-177.593 891.6,-177.593 891.6,-139.593 973.6,-139.593 973.6,-177.593"/>
<text text-anchor="middle" x="932.6" y="-162.393" font-family="Times New Roman,serif" font-size="14.00">ICRA</text>
<text text-anchor="middle" x="932.6" y="-147.393" font-family="Times New Roman,serif" font-size="14.00">Submission</text>
</a>
</g>
</g>
<!-- node_24 -->
<g id="node38" class="node"><title>node_24</title>
<g id="a_node38"><a xlink:href="http://www.icra2017.org/" xlink:title="International Conference on Robotics and Automation">
<polygon fill="none" stroke="black" points="1420.2,-74.5933 1338.2,-74.5933 1338.2,-36.5933 1420.2,-36.5933 1420.2,-74.5933"/>
<text text-anchor="middle" x="1379.2" y="-59.3933" font-family="Times New Roman,serif" font-size="14.00">ICRA</text>
<text text-anchor="middle" x="1379.2" y="-44.3933" font-family="Times New Roman,serif" font-size="14.00">Notification</text>
</a>
</g>
</g>
<!-- node_11&#45;&gt;node_24 -->
<g id="edge7" class="edge"><title>node_11&#45;&gt;node_24</title>
<path fill="none" stroke="black" d="M947.266,-139.554C960.064,-122.556 980.357,-97.6313 1001.6,-79.5933 1048.43,-39.8284 1060.45,-24.213 1119.6,-7.59331 1190.99,12.4664 1275.87,-12.2384 1328.39,-32.9873"/>
<polygon fill="black" stroke="black" points="1327.23,-36.293 1337.81,-36.8039 1329.86,-29.8052 1327.23,-36.293"/>
</g>
<!-- node_12 -->
<g id="node22" class="node"><title>node_12</title>
<g id="a_node22"><a xlink:href="http://www.sigapp.org/sac/" xlink:title="Symposium On Applied Computing">
<polygon fill="none" stroke="black" points="973.6,-320.093 891.6,-320.093 891.6,-267.093 973.6,-267.093 973.6,-320.093"/>
<text text-anchor="middle" x="932.6" y="-304.893" font-family="Times New Roman,serif" font-size="14.00">SAC</text>
<text text-anchor="middle" x="932.6" y="-289.893" font-family="Times New Roman,serif" font-size="14.00">Abstracts</text>
<text text-anchor="middle" x="932.6" y="-274.893" font-family="Times New Roman,serif" font-size="14.00">Submission</text>
</a>
</g>
</g>
<!-- node_18 -->
<g id="node30" class="node"><title>node_18</title>
<g id="a_node30"><a xlink:href="http://www.sigapp.org/sac/" xlink:title="Symposium On Applied Computing">
<polygon fill="none" stroke="black" points="1209.6,-312.593 1127.6,-312.593 1127.6,-274.593 1209.6,-274.593 1209.6,-312.593"/>
<text text-anchor="middle" x="1168.6" y="-297.393" font-family="Times New Roman,serif" font-size="14.00">SAC</text>
<text text-anchor="middle" x="1168.6" y="-282.393" font-family="Times New Roman,serif" font-size="14.00">Notification</text>
</a>
</g>
</g>
<!-- node_12&#45;&gt;node_18 -->
<g id="edge8" class="edge"><title>node_12&#45;&gt;node_18</title>
<path fill="none" stroke="black" d="M973.826,-293.593C1013.54,-293.593 1074.39,-293.593 1117.29,-293.593"/>
<polygon fill="black" stroke="black" points="1117.51,-297.093 1127.51,-293.593 1117.51,-290.093 1117.51,-297.093"/>
</g>
<!-- node_13 -->
<g id="node23" class="node"><title>node_13</title>
<g id="a_node23"><a xlink:href="http://www.aaai.org/Conferences/conferences.php" xlink:title="Association for the Advancement of Artificial Intelligence">
<polygon fill="none" stroke="black" points="973.6,-249.093 891.6,-249.093 891.6,-196.093 973.6,-196.093 973.6,-249.093"/>
<text text-anchor="middle" x="932.6" y="-233.893" font-family="Times New Roman,serif" font-size="14.00">AAAI</text>
<text text-anchor="middle" x="932.6" y="-218.893" font-family="Times New Roman,serif" font-size="14.00">Abstracts</text>
<text text-anchor="middle" x="932.6" y="-203.893" font-family="Times New Roman,serif" font-size="14.00">Submission</text>
</a>
</g>
</g>
<!-- node_17 -->
<g id="node29" class="node"><title>node_17</title>
<g id="a_node29"><a xlink:href="http://www.aaai.org/Conferences/conferences.php" xlink:title="Association for the Advancement of Artificial Intelligence">
<polygon fill="none" stroke="black" points="1209.6,-57.5933 1127.6,-57.5933 1127.6,-19.5933 1209.6,-19.5933 1209.6,-57.5933"/>
<text text-anchor="middle" x="1168.6" y="-42.3933" font-family="Times New Roman,serif" font-size="14.00">AAAI</text>
<text text-anchor="middle" x="1168.6" y="-27.3933" font-family="Times New Roman,serif" font-size="14.00">Notification</text>
</a>
</g>
</g>
<!-- node_13&#45;&gt;node_17 -->
<g id="edge9" class="edge"><title>node_13&#45;&gt;node_17</title>
<path fill="none" stroke="black" d="M969.726,-195.941C973.764,-192.831 977.792,-189.67 981.6,-186.593 1044.82,-135.51 1053.54,-113.945 1119.6,-66.5933 1121.19,-65.4552 1122.82,-64.3219 1124.49,-63.1998"/>
<polygon fill="black" stroke="black" points="1126.5,-66.0689 1133.02,-57.7122 1122.71,-60.1835 1126.5,-66.0689"/>
</g>
<!-- node_14 -->
<g id="node24" class="node"><title>node_14</title>
<g id="a_node24"><a xlink:href="http://eumas-at2016.webs.upv.es/EUMAS2016.html" xlink:title="European Conference on Multi&#45;Agent Systems">
<polygon fill="none" stroke="black" points="973.6,-397.593 891.6,-397.593 891.6,-359.593 973.6,-359.593 973.6,-397.593"/>
<text text-anchor="middle" x="932.6" y="-382.393" font-family="Times New Roman,serif" font-size="14.00">EUMAS</text>
<text text-anchor="middle" x="932.6" y="-367.393" font-family="Times New Roman,serif" font-size="14.00">Submission</text>
</a>
</g>
</g>
<!-- node_15 -->
<g id="node26" class="node"><title>node_15</title>
<g id="a_node26"><a xlink:href="http://eumas-at2016.webs.upv.es/EUMAS2016.html" xlink:title="European Conference on Multi&#45;Agent Systems">
<polygon fill="none" stroke="black" points="1091.6,-441.593 1009.6,-441.593 1009.6,-403.593 1091.6,-403.593 1091.6,-441.593"/>
<text text-anchor="middle" x="1050.6" y="-426.393" font-family="Times New Roman,serif" font-size="14.00">EUMAS</text>
<text text-anchor="middle" x="1050.6" y="-411.393" font-family="Times New Roman,serif" font-size="14.00">Notification</text>
</a>
</g>
</g>
<!-- node_14&#45;&gt;node_15 -->
<g id="edge10" class="edge"><title>node_14&#45;&gt;node_15</title>
<path fill="none" stroke="black" d="M973.846,-393.859C982.303,-397.067 991.318,-400.487 1000.07,-403.806"/>
<polygon fill="black" stroke="black" points="998.834,-407.081 1009.43,-407.355 1001.32,-400.536 998.834,-407.081"/>
</g>
<!-- order_node_10 -->
<!-- order_node_9&#45;&gt;order_node_10 -->
<!-- node_16 -->
<g id="node27" class="node"><title>node_16</title>
<g id="a_node27"><a xlink:href="http://www.icaart.org/" xlink:title="International Conference on Agents and Artificial Intelligence">
<polygon fill="none" stroke="black" points="1091.6,-363.593 1009.6,-363.593 1009.6,-325.593 1091.6,-325.593 1091.6,-363.593"/>
<text text-anchor="middle" x="1050.6" y="-348.393" font-family="Times New Roman,serif" font-size="14.00">ICAART</text>
<text text-anchor="middle" x="1050.6" y="-333.393" font-family="Times New Roman,serif" font-size="14.00">Submission</text>
</a>
</g>
</g>
<!-- node_23 -->
<g id="node35" class="node"><title>node_23</title>
<g id="a_node35"><a xlink:href="http://www.icaart.org/" xlink:title="International Conference on Agents and Artificial Intelligence">
<polygon fill="none" stroke="black" points="1209.6,-368.593 1127.6,-368.593 1127.6,-330.593 1209.6,-330.593 1209.6,-368.593"/>
<text text-anchor="middle" x="1168.6" y="-353.393" font-family="Times New Roman,serif" font-size="14.00">ICAART</text>
<text text-anchor="middle" x="1168.6" y="-338.393" font-family="Times New Roman,serif" font-size="14.00">Notification</text>
</a>
</g>
</g>
<!-- node_16&#45;&gt;node_23 -->
<g id="edge11" class="edge"><title>node_16&#45;&gt;node_23</title>
<path fill="none" stroke="black" d="M1091.85,-346.328C1100.03,-346.681 1108.74,-347.056 1117.23,-347.422"/>
<polygon fill="black" stroke="black" points="1117.28,-350.928 1127.43,-347.862 1117.59,-343.934 1117.28,-350.928"/>
</g>
<!-- order_node_11 -->
<!-- order_node_10&#45;&gt;order_node_11 -->
<!-- node_19 -->
<g id="node31" class="node"><title>node_19</title>
<g id="a_node31"><a xlink:href="http://www.icaps-conference.org/" xlink:title="International Conference on Automated Planning and Scheduling">
<polygon fill="none" stroke="black" points="1209.6,-256.093 1127.6,-256.093 1127.6,-203.093 1209.6,-203.093 1209.6,-256.093"/>
<text text-anchor="middle" x="1168.6" y="-240.893" font-family="Times New Roman,serif" font-size="14.00">ICAPS</text>
<text text-anchor="middle" x="1168.6" y="-225.893" font-family="Times New Roman,serif" font-size="14.00">Abstracts</text>
<text text-anchor="middle" x="1168.6" y="-210.893" font-family="Times New Roman,serif" font-size="14.00">Submission</text>
</a>
</g>
</g>
<!-- node_25 -->
<g id="node39" class="node"><title>node_25</title>
<g id="a_node39"><a xlink:href="http://www.icaps-conference.org/" xlink:title="International Conference on Automated Planning and Scheduling">
<polygon fill="none" stroke="black" points="1420.2,-242.593 1338.2,-242.593 1338.2,-204.593 1420.2,-204.593 1420.2,-242.593"/>
<text text-anchor="middle" x="1379.2" y="-227.393" font-family="Times New Roman,serif" font-size="14.00">ICAPS</text>
<text text-anchor="middle" x="1379.2" y="-212.393" font-family="Times New Roman,serif" font-size="14.00">Notification</text>
</a>
</g>
</g>
<!-- node_19&#45;&gt;node_25 -->
<g id="edge12" class="edge"><title>node_19&#45;&gt;node_25</title>
<path fill="none" stroke="black" d="M1209.82,-228.436C1243.44,-227.469 1291.56,-226.085 1327.76,-225.044"/>
<polygon fill="black" stroke="black" points="1328.21,-228.533 1338.1,-224.747 1328.01,-221.536 1328.21,-228.533"/>
</g>
<!-- node_20 -->
<g id="node32" class="node"><title>node_20</title>
<g id="a_node32"><a xlink:href="http://www.ifaamas.org/" xlink:title="International Conference on Autonomous Agents and Multiagent Systems">
<polygon fill="none" stroke="black" points="1209.6,-185.093 1127.6,-185.093 1127.6,-132.093 1209.6,-132.093 1209.6,-185.093"/>
<text text-anchor="middle" x="1168.6" y="-169.893" font-family="Times New Roman,serif" font-size="14.00">AAMAS</text>
<text text-anchor="middle" x="1168.6" y="-154.893" font-family="Times New Roman,serif" font-size="14.00">Abstracts</text>
<text text-anchor="middle" x="1168.6" y="-139.893" font-family="Times New Roman,serif" font-size="14.00">Submission</text>
</a>
</g>
</g>
<!-- node_26 -->
<g id="node40" class="node"><title>node_26</title>
<g id="a_node40"><a xlink:href="http://www.ifaamas.org/" xlink:title="International Conference on Autonomous Agents and Multiagent Systems">
<polygon fill="none" stroke="black" points="1420.2,-186.593 1338.2,-186.593 1338.2,-148.593 1420.2,-148.593 1420.2,-186.593"/>
<text text-anchor="middle" x="1379.2" y="-171.393" font-family="Times New Roman,serif" font-size="14.00">AAMAS</text>
<text text-anchor="middle" x="1379.2" y="-156.393" font-family="Times New Roman,serif" font-size="14.00">Notification</text>
</a>
</g>
</g>
<!-- node_20&#45;&gt;node_26 -->
<g id="edge13" class="edge"><title>node_20&#45;&gt;node_26</title>
<path fill="none" stroke="black" d="M1209.82,-160.329C1243.44,-161.779 1291.56,-163.855 1327.76,-165.417"/>
<polygon fill="black" stroke="black" points="1327.96,-168.929 1338.1,-165.863 1328.26,-161.935 1327.96,-168.929"/>
</g>
<!-- node_21 -->
<g id="node33" class="node"><title>node_21</title>
<g id="a_node33"><a xlink:href="http://www.kr.org/" xlink:title="International Conference on Principles of Knowledge Representation and Reasoning">
<polygon fill="none" stroke="black" points="1209.6,-461.093 1127.6,-461.093 1127.6,-408.093 1209.6,-408.093 1209.6,-461.093"/>
<text text-anchor="middle" x="1168.6" y="-445.893" font-family="Times New Roman,serif" font-size="14.00">KR</text>
<text text-anchor="middle" x="1168.6" y="-430.893" font-family="Times New Roman,serif" font-size="14.00">Abstracts</text>
<text text-anchor="middle" x="1168.6" y="-415.893" font-family="Times New Roman,serif" font-size="14.00">Submission</text>
</a>
</g>
</g>
<!-- node_28 -->
<g id="node43" class="node"><title>node_28</title>
<g id="a_node43"><a xlink:href="http://www.kr.org/" xlink:title="International Conference on Principles of Knowledge Representation and Reasoning">
<polygon fill="none" stroke="black" points="1538.2,-326.593 1456.2,-326.593 1456.2,-288.593 1538.2,-288.593 1538.2,-326.593"/>
<text text-anchor="middle" x="1497.2" y="-311.393" font-family="Times New Roman,serif" font-size="14.00">KR</text>
<text text-anchor="middle" x="1497.2" y="-296.393" font-family="Times New Roman,serif" font-size="14.00">Notification</text>
</a>
</g>
</g>
<!-- node_21&#45;&gt;node_28 -->
<g id="edge14" class="edge"><title>node_21&#45;&gt;node_28</title>
<path fill="none" stroke="black" d="M1209.65,-419.021C1269.35,-395.805 1381.6,-352.154 1446.48,-326.928"/>
<polygon fill="black" stroke="black" points="1448.03,-330.08 1456.08,-323.194 1445.49,-323.556 1448.03,-330.08"/>
</g>
<!-- node_22 -->
<g id="node34" class="node"><title>node_22</title>
<g id="a_node34"><a xlink:href="http://www.flairs.com/" xlink:title="Florida Artificial Intelligence Research Society">
<polygon fill="none" stroke="black" points="1209.6,-113.593 1127.6,-113.593 1127.6,-75.5933 1209.6,-75.5933 1209.6,-113.593"/>
<text text-anchor="middle" x="1168.6" y="-98.3933" font-family="Times New Roman,serif" font-size="14.00">FLAIRS</text>
<text text-anchor="middle" x="1168.6" y="-83.3933" font-family="Times New Roman,serif" font-size="14.00">Submission</text>
</a>
</g>
</g>
<!-- node_27 -->
<g id="node41" class="node"><title>node_27</title>
<g id="a_node41"><a xlink:href="http://www.flairs.com/" xlink:title="Florida Artificial Intelligence Research Society">
<polygon fill="none" stroke="black" points="1420.2,-130.593 1338.2,-130.593 1338.2,-92.5933 1420.2,-92.5933 1420.2,-130.593"/>
<text text-anchor="middle" x="1379.2" y="-115.393" font-family="Times New Roman,serif" font-size="14.00">FLAIRS</text>
<text text-anchor="middle" x="1379.2" y="-100.393" font-family="Times New Roman,serif" font-size="14.00">Notification</text>
</a>
</g>
</g>
<!-- node_22&#45;&gt;node_27 -->
<g id="edge15" class="edge"><title>node_22&#45;&gt;node_27</title>
<path fill="none" stroke="black" d="M1209.82,-97.8711C1243.44,-100.611 1291.56,-104.533 1327.76,-107.483"/>
<polygon fill="black" stroke="black" points="1327.85,-111.002 1338.1,-108.326 1328.42,-104.025 1327.85,-111.002"/>
</g>
<!-- order_node_12 -->
<!-- order_node_11&#45;&gt;order_node_12 -->
<!-- order_node_13 -->
<!-- order_node_12&#45;&gt;order_node_13 -->
</g>
</svg>
